<svg viewBox="0 0 330 200" xmlns="http://www.w3.org/2000/svg"><g><g><g><g><g><line x1="51.40399932861328" y1="178.02499961853027" x2="46.40399932861328" y2="178.02499961853027" style="visibility: inherit;" fill="rgb(0, 0, 0)" stroke="rgb(204, 204, 204)" stroke-width="1px"></line><line x1="51.40399932861328" y1="163.18958298365274" x2="46.40399932861328" y2="163.18958298365274" style="visibility: inherit;" fill="rgb(0, 0, 0)" stroke="rgb(204, 204, 204)" stroke-width="1px"></line><line x1="51.40399932861328" y1="148.35416634877524" x2="46.40399932861328" y2="148.35416634877524" style="visibility: inherit;" fill="rgb(0, 0, 0)" stroke="rgb(204, 204, 204)" stroke-width="1px"></line><line x1="51.40399932861328" y1="133.5187497138977" x2="46.40399932861328" y2="133.5187497138977" style="visibility: inherit;" fill="rgb(0, 0, 0)" stroke="rgb(204, 204, 204)" stroke-width="1px"></line><line x1="51.40399932861328" y1="118.68333307902019" x2="46.40399932861328" y2="118.68333307902019" style="visibility: inherit;" fill="rgb(0, 0, 0)" stroke="rgb(204, 204, 204)" stroke-width="1px"></line><line x1="51.40399932861328" y1="103.84791644414265" x2="46.40399932861328" y2="103.84791644414265" style="visibility: inherit;" fill="rgb(0, 0, 0)" stroke="rgb(204, 204, 204)" stroke-width="1px"></line><line x1="51.40399932861328" y1="89.01249980926514" x2="46.40399932861328" y2="89.01249980926514" style="visibility: inherit;" fill="rgb(0, 0, 0)" stroke="rgb(204, 204, 204)" stroke-width="1px"></line><line x1="51.40399932861328" y1="74.1770831743876" x2="46.40399932861328" y2="74.1770831743876" style="visibility: inherit;" fill="rgb(0, 0, 0)" stroke="rgb(204, 204, 204)" stroke-width="1px"></line><line x1="51.40399932861328" y1="59.3416665395101" x2="46.40399932861328" y2="59.3416665395101" style="visibility: inherit;" fill="rgb(0, 0, 0)" stroke="rgb(204, 204, 204)" stroke-width="1px"></line><line x1="51.40399932861328" y1="44.50624990463257" x2="46.40399932861328" y2="44.50624990463257" style="visibility: inherit;" fill="rgb(0, 0, 0)" stroke="rgb(204, 204, 204)" stroke-width="1px"></line><line x1="51.40399932861328" y1="29.670833269755036" x2="46.40399932861328" y2="29.670833269755036" style="visibility: inherit;" fill="rgb(0, 0, 0)" stroke="rgb(204, 204, 204)" stroke-width="1px"></line><line x1="51.40399932861328" y1="14.835416634877532" x2="46.40399932861328" y2="14.835416634877532" style="visibility: inherit;" fill="rgb(0, 0, 0)" stroke="rgb(204, 204, 204)" stroke-width="1px"></line><line x1="51.40399932861328" y1="0" x2="46.40399932861328" y2="0" style="visibility: inherit;" fill="rgb(0, 0, 0)" stroke="rgb(204, 204, 204)" stroke-width="1px"></line></g><g transform="translate(41.40399932861328, 0)"><text style="text-anchor: end; visibility: hidden; font-family: &quot;Helvetica Neue&quot;, sans-serif; font-size: 12px; font-weight: 200;" x="0" y="178.02499961853027" dx="0em" dy="0.3em" fill="rgb(50, 49, 63)" stroke="none" stroke-width="1px">-800</text><text style="text-anchor: end; visibility: inherit; font-family: &quot;Helvetica Neue&quot;, sans-serif; font-size: 12px; font-weight: 200;" x="0" y="163.18958298365274" dx="0em" dy="0.3em" fill="rgb(50, 49, 63)" stroke="none" stroke-width="1px">-700</text><text style="text-anchor: end; visibility: hidden; font-family: &quot;Helvetica Neue&quot;, sans-serif; font-size: 12px; font-weight: 200;" x="0" y="148.35416634877524" dx="0em" dy="0.3em" fill="rgb(50, 49, 63)" stroke="none" stroke-width="1px">-600</text><text style="text-anchor: end; visibility: inherit; font-family: &quot;Helvetica Neue&quot;, sans-serif; font-size: 12px; font-weight: 200;" x="0" y="133.5187497138977" dx="0em" dy="0.3em" fill="rgb(50, 49, 63)" stroke="none" stroke-width="1px">-500</text><text style="text-anchor: end; visibility: hidden; font-family: &quot;Helvetica Neue&quot;, sans-serif; font-size: 12px; font-weight: 200;" x="0" y="118.68333307902019" dx="0em" dy="0.3em" fill="rgb(50, 49, 63)" stroke="none" stroke-width="1px">-400</text><text style="text-anchor: end; visibility: inherit; font-family: &quot;Helvetica Neue&quot;, sans-serif; font-size: 12px; font-weight: 200;" x="0" y="103.84791644414265" dx="0em" dy="0.3em" fill="rgb(50, 49, 63)" stroke="none" stroke-width="1px">-300</text><text style="text-anchor: end; visibility: hidden; font-family: &quot;Helvetica Neue&quot;, sans-serif; font-size: 12px; font-weight: 200;" x="0" y="89.01249980926514" dx="0em" dy="0.3em" fill="rgb(50, 49, 63)" stroke="none" stroke-width="1px">-200</text><text style="text-anchor: end; visibility: inherit; font-family: &quot;Helvetica Neue&quot;, sans-serif; font-size: 12px; font-weight: 200;" x="0" y="74.1770831743876" dx="0em" dy="0.3em" fill="rgb(50, 49, 63)" stroke="none" stroke-width="1px">-100</text><text style="text-anchor: end; visibility: hidden; font-family: &quot;Helvetica Neue&quot;, sans-serif; font-size: 12px; font-weight: 200;" x="0" y="59.3416665395101" dx="0em" dy="0.3em" fill="rgb(50, 49, 63)" stroke="none" stroke-width="1px">0</text><text style="text-anchor: end; visibility: inherit; font-family: &quot;Helvetica Neue&quot;, sans-serif; font-size: 12px; font-weight: 200;" x="0" y="44.50624990463257" dx="0em" dy="0.3em" fill="rgb(50, 49, 63)" stroke="none" stroke-width="1px">100</text><text style="text-anchor: end; visibility: hidden; font-family: &quot;Helvetica Neue&quot;, sans-serif; font-size: 12px; font-weight: 200;" x="0" y="29.670833269755036" dx="0em" dy="0.3em" fill="rgb(50, 49, 63)" stroke="none" stroke-width="1px">200</text><text style="text-anchor: end; visibility: inherit; font-family: &quot;Helvetica Neue&quot;, sans-serif; font-size: 12px; font-weight: 200;" x="0" y="14.835416634877532" dx="0em" dy="0.3em" fill="rgb(50, 49, 63)" stroke="none" stroke-width="1px">300</text><text style="text-anchor: end; visibility: hidden; font-family: &quot;Helvetica Neue&quot;, sans-serif; font-size: 12px; font-weight: 200;" x="0" y="0" dx="0em" dy="0.3em" fill="rgb(50, 49, 63)" stroke="none" stroke-width="1px">400</text></g><line x1="51.40399932861328" y1="0" x2="51.40399932861328" y2="178.02499961853027" fill="rgb(0, 0, 0)" stroke="rgb(204, 204, 204)" stroke-width="1px"></line></g></g><g transform="translate(51, 0)" clip-path="url(#clip_0)"><clipPath id="clip_0"><rect width="278" height="178"></rect></clipPath><g><g><g><line x1="0" y1="0" x2="0" y2="178.02499961853027" fill="rgb(0, 0, 0)" stroke="rgb(60, 60, 60)" stroke-width="1px" opacity="0.25"></line><line x1="23.216333389282227" y1="0" x2="23.216333389282227" y2="178.02499961853027" fill="rgb(0, 0, 0)" stroke="rgb(60, 60, 60)" stroke-width="1px" opacity="0.25"></line><line x1="46.43266677856445" y1="0" x2="46.43266677856445" y2="178.02499961853027" fill="rgb(0, 0, 0)" stroke="rgb(60, 60, 60)" stroke-width="1px" opacity="0.25"></line><line x1="69.64900016784668" y1="0" x2="69.64900016784668" y2="178.02499961853027" fill="rgb(0, 0, 0)" stroke="rgb(60, 60, 60)" stroke-width="1px" opacity="0.25"></line><line x1="92.8653335571289" y1="0" x2="92.8653335571289" y2="178.02499961853027" fill="rgb(0, 0, 0)" stroke="rgb(60, 60, 60)" stroke-width="1px" opacity="0.25"></line><line x1="116.08166694641113" y1="0" x2="116.08166694641113" y2="178.02499961853027" fill="rgb(0, 0, 0)" stroke="rgb(60, 60, 60)" stroke-width="1px" opacity="0.25"></line><line x1="139.29800033569336" y1="0" x2="139.29800033569336" y2="178.02499961853027" fill="rgb(0, 0, 0)" stroke="rgb(60, 60, 60)" stroke-width="1px" opacity="0.25"></line><line x1="162.5143337249756" y1="0" x2="162.5143337249756" y2="178.02499961853027" fill="rgb(0, 0, 0)" stroke="rgb(60, 60, 60)" stroke-width="1px" opacity="0.25"></line><line x1="185.7306671142578" y1="0" x2="185.7306671142578" y2="178.02499961853027" fill="rgb(0, 0, 0)" stroke="rgb(60, 60, 60)" stroke-width="1px" opacity="0.25"></line><line x1="208.94700050354004" y1="0" x2="208.94700050354004" y2="178.02499961853027" fill="rgb(0, 0, 0)" stroke="rgb(60, 60, 60)" stroke-width="1px" opacity="0.25"></line><line x1="232.16333389282227" y1="0" x2="232.16333389282227" y2="178.02499961853027" fill="rgb(0, 0, 0)" stroke="rgb(60, 60, 60)" stroke-width="1px" opacity="0.25"></line><line x1="255.3796672821045" y1="0" x2="255.3796672821045" y2="178.02499961853027" fill="rgb(0, 0, 0)" stroke="rgb(60, 60, 60)" stroke-width="1px" opacity="0.25"></line><line x1="278.5960006713867" y1="0" x2="278.5960006713867" y2="178.02499961853027" fill="rgb(0, 0, 0)" stroke="rgb(60, 60, 60)" stroke-width="1px" opacity="0.25"></line></g><g><line x1="0" y1="178.02499961853027" x2="278.5960006713867" y2="178.02499961853027" fill="rgb(0, 0, 0)" stroke="rgb(60, 60, 60)" stroke-width="1px" opacity="0.25"></line><line x1="0" y1="163.18958298365274" x2="278.5960006713867" y2="163.18958298365274" fill="rgb(0, 0, 0)" stroke="rgb(60, 60, 60)" stroke-width="1px" opacity="0.25"></line><line x1="0" y1="148.35416634877524" x2="278.5960006713867" y2="148.35416634877524" fill="rgb(0, 0, 0)" stroke="rgb(60, 60, 60)" stroke-width="1px" opacity="0.25"></line><line x1="0" y1="133.5187497138977" x2="278.5960006713867" y2="133.5187497138977" fill="rgb(0, 0, 0)" stroke="rgb(60, 60, 60)" stroke-width="1px" opacity="0.25"></line><line x1="0" y1="118.68333307902019" x2="278.5960006713867" y2="118.68333307902019" fill="rgb(0, 0, 0)" stroke="rgb(60, 60, 60)" stroke-width="1px" opacity="0.25"></line><line x1="0" y1="103.84791644414265" x2="278.5960006713867" y2="103.84791644414265" fill="rgb(0, 0, 0)" stroke="rgb(60, 60, 60)" stroke-width="1px" opacity="0.25"></line><line x1="0" y1="89.01249980926514" x2="278.5960006713867" y2="89.01249980926514" fill="rgb(0, 0, 0)" stroke="rgb(60, 60, 60)" stroke-width="1px" opacity="0.25"></line><line x1="0" y1="74.1770831743876" x2="278.5960006713867" y2="74.1770831743876" fill="rgb(0, 0, 0)" stroke="rgb(60, 60, 60)" stroke-width="1px" opacity="0.25"></line><line x1="0" y1="59.3416665395101" x2="278.5960006713867" y2="59.3416665395101" fill="rgb(0, 0, 0)" stroke="rgb(60, 60, 60)" stroke-width="1px" opacity="0.25"></line><line x1="0" y1="44.50624990463257" x2="278.5960006713867" y2="44.50624990463257" fill="rgb(0, 0, 0)" stroke="rgb(60, 60, 60)" stroke-width="1px" opacity="0.25"></line><line x1="0" y1="29.670833269755036" x2="278.5960006713867" y2="29.670833269755036" fill="rgb(0, 0, 0)" stroke="rgb(60, 60, 60)" stroke-width="1px" opacity="0.25"></line><line x1="0" y1="14.835416634877532" x2="278.5960006713867" y2="14.835416634877532" fill="rgb(0, 0, 0)" stroke="rgb(60, 60, 60)" stroke-width="1px" opacity="0.25"></line><line x1="0" y1="0" x2="278.5960006713867" y2="0" fill="rgb(0, 0, 0)" stroke="rgb(60, 60, 60)" stroke-width="1px" opacity="0.25"></line></g></g></g><g><g><line x1="0" y1="59.3416665395101" x2="278.5960006713867" y2="59.3416665395101" fill="rgb(0, 0, 0)" stroke="rgb(153, 153, 153)" stroke-width="1.5px"></line></g></g><g><g><line x1="23.216333389282227" y1="0" x2="23.216333389282227" y2="178.02499961853027" fill="rgb(0, 0, 0)" stroke="rgb(153, 153, 153)" stroke-width="1.5px"></line></g></g><g><g><g><g><g><path style="fill: none;" stroke="rgb(255, 112, 67)" stroke-width="2px" d="M23.216333389282227,149.09698753960703L23.680660057067872,142.2152396608608L24.144986724853517,139.47903656607502L24.60931339263916,113.18034186002957L25.073640060424804,100.0886867274513L25.537966728210446,92.55060951379282L26.002293395996094,105.48530357308496L26.46662006378174,118.42313366116507L26.93094673156738,133.4547287795082L27.395273399353027,150.8909767397L27.859600067138672,155.6908262838483L28.323926734924317,145.96221732883862L28.788253402709962,143.558761712944L29.252580070495604,132.87235331611373L29.716906738281253,170.98016339792534L30.181233406066895,147.44051914673022L30.64556007385254,141.28235240774143L31.10988674163818,154.02501287488315L31.574213409423827,142.56420201701454L32.038540077209475,136.28423407935875L32.50286674499512,135.76350630945652L32.96719341278076,127.9556901010221L33.43152008056641,129.07883173199875L33.89584674835205,131.69214308480122L34.3601734161377,128.00847820994164L34.82450008392334,136.8102984252497L35.28882675170899,150.56717535385818L35.75315341949463,144.8551444695509L36.21748008728027,138.05998131394563L36.681806755065914,131.17332052974095L37.14613342285156,152.23118489846485L37.61046009063721,154.8674675837063L38.074786758422846,156.15853387043234L38.539113426208495,140.32528820818334L39.00344009399414,137.72491645396113L39.467766761779785,138.40096590212798L39.932093429565434,140.9429535260551L40.39642009735107,151.1761698726341L40.86074676513672,160.1757928276895L41.325073432922366,166.61551263451727L41.78940010070801,144.12113190272265L42.25372676849366,133.82066287692535L42.71805343627929,151.8368572658578L43.18238010406494,159.35825453997842L43.64670677185059,166.81357971860146L44.11103343963623,163.836125073222L44.57536010742188,153.17267284364124L45.039686775207514,148.218504790847L45.50401344299316,147.07843144862593L45.96834011077881,159.23717509644993L46.43266677856445,165.51143603234073L46.896993446350095,167.6980127825758L47.361320114135744,143.39981741873416L47.825646781921385,115.9851997547974L48.289973449707034,105.887111179313L48.754300117492676,97.27496366973547L49.21862678527832,91.46731921863146L49.682953453063966,92.88062035867294L50.14728012084961,95.2401845773871L50.61160678863526,90.41928020180276L51.07593345642089,88.8920740013425L51.54026012420654,87.94209532711828L52.00458679199219,87.44826549483169L52.46891345977783,89.1179717853795L52.93324012756348,89.73404212985037L53.39756679534913,92.35886506010424L53.86189346313476,90.94659371209839L54.32622013092041,90.21275208364959L54.79054679870605,92.22065666605192L55.2548734664917,93.47209693177105L55.719200134277344,92.37673405658435L56.183526802062985,87.44902792458713L56.647853469848634,84.78937516785832L57.112180137634276,87.21698581105706L57.576506805419925,87.6389494008585L58.040833473205566,92.80062670867562L58.50516014099121,84.41609361410794L58.96948680877686,85.00075823909899L59.433813476562506,90.96806519895297L59.89814014434814,92.60479791291486L60.36246681213379,97.06816581192878L60.82679347991943,99.16697508712413L61.29112014770508,96.32935857234627L61.75544681549073,97.72620818071303L62.21977348327636,97.37983162421523L62.68410015106201,98.68115800591005L63.14842681884765,96.15462298009571L63.6127534866333,96.43376655134195L64.07708015441895,96.66123906379349L64.54140682220459,94.54506270950408L65.00573348999023,95.82372091188098L65.47006015777588,91.72719910127708L65.93438682556152,93.03700555665617L66.39871349334717,97.1591015377047L66.86304016113282,97.08008433474471L67.32736682891846,94.33800584285474L67.7916934967041,94.86308585018183L68.25602016448974,90.0553360932112L68.7203468322754,92.30314368207667L69.18467350006104,94.00115865291623L69.64900016784668,93.0924935143874L70.11332683563232,88.13896178728908L70.57765350341798,89.74596740463457L71.04198017120362,88.92102441847825L71.50630683898926,82.22702944110324L71.97063350677492,85.4259918102754L72.43496017456054,86.45256853445777L72.89928684234619,84.0438172350554L73.36361351013183,83.95765867662284L73.82794017791748,78.62441215339526L74.29226684570312,82.14099086004587L74.75659351348877,86.09651951000812L75.22092018127442,87.94273662876283L75.68524684906006,89.50700728854342L76.14957351684569,88.14044076428199L76.61390018463135,87.17059287631182L77.07822685241699,85.90909004238074L77.54255352020263,89.35830784645738L78.00688018798829,88.09285697108267L78.47120685577393,87.94319312891844L78.93553352355957,90.21242889652724L79.39986019134521,85.14510041866639L79.86418685913087,85.2065880238531L80.32851352691651,85.40783371428324L80.79284019470214,85.78972756225704L81.2571668624878,88.62906053343735L81.72149353027343,86.42158124661475L82.18582019805908,85.7815212384385L82.65014686584473,84.70392678940634L83.11447353363037,84.3551641255694L83.57880020141602,83.55049599056909L84.04312686920167,78.83622029894403L84.50745353698731,79.85884809229488L84.97178020477294,76.13685258095306L85.43610687255858,77.63327711464403L85.90043354034424,83.66060752577152L86.36476020812988,83.74965547508492L86.82908687591552,86.94907994359988L87.29341354370118,86.62197669444423L87.75774021148682,86.66445864918884L88.22206687927246,88.54703882935794L88.68639354705812,83.50945607069987L89.15072021484376,83.08976052458728L89.61504688262939,81.16082714464339L90.07937355041503,86.28013459037194L90.54370021820068,84.04476980579881L91.00802688598633,82.55967799898725L91.47235355377197,84.98518696940356L91.93668022155762,80.56152750066425L92.40100688934326,79.7245426842351L92.8653335571289,85.80255719854644L93.32966022491456,80.78764397783276L93.79398689270019,76.99474514694302L94.25831356048583,75.80482949599752L94.72264022827149,74.40120165155528L95.18696689605713,73.94254319249904L95.65129356384277,70.45418263357745L96.11562023162841,67.82204436922554L96.57994689941407,68.35661360246038L97.04427356719971,68.38139881248179L97.50860023498535,67.17754643812044L97.97292690277101,68.15608284279314L98.43725357055663,66.22875708251378L98.90158023834228,63.9044598296706L99.36590690612793,61.78664863523322L99.83023357391357,60.86708790330525L100.29456024169922,60.76271321183006L100.75888690948487,64.24642280296973L101.22321357727051,66.90442695374271L101.68754024505616,64.35078894333535L102.15186691284178,64.40433096012038L102.61619358062744,67.94056297169492L103.08052024841308,65.87736427442765L103.54484691619872,66.72354344985784L104.00917358398438,69.79985022844347L104.47350025177002,70.29760072571423L104.93782691955566,69.52141223103581L105.40215358734132,68.70798681299301L105.86648025512696,70.40184159001863L106.3308069229126,70.17985443561777L106.79513359069826,70.50043809504344L107.25946025848388,69.21239091336004L107.72378692626953,64.83065288588462L108.18811359405517,67.00807221424357L108.65244026184082,63.84595425495681L109.11676692962646,68.82354240176687L109.5810935974121,72.39800028648236L110.04542026519776,71.61412266470529L110.5097469329834,66.67566230030462L110.97407360076903,63.64399863597369L111.43840026855469,66.082382749637L111.90272693634033,67.69998713985181L112.36705360412597,68.08882605003545L112.83138027191163,64.10291464164848L113.29570693969727,61.14633419934839L113.76003360748291,62.89579478149108L114.22436027526855,62.23861078800559L114.68868694305421,60.196699882749456L115.15301361083985,59.06109481065474L115.61734027862548,62.83552247592077L116.08166694641113,64.24706633171876L116.54599361419677,66.35357601957372L117.01032028198242,67.14740562012487L117.47464694976807,72.529627570033L117.93897361755371,57.353982954632485L118.40330028533936,64.26891928542275L118.86762695312501,64.94672726144239L119.33195362091065,62.7003663347723L119.79628028869628,62.91195866589487L120.26060695648192,66.0777978109114L120.72493362426758,68.65376016774107L121.18926029205322,70.17932416654511L121.65358695983886,71.14798639917888L122.11791362762452,68.62338962844031L122.58224029541016,64.34419617969199L123.0465669631958,64.57327029343858L123.51089363098146,62.67686116639297L123.9752202987671,62.028223321587475L124.43954696655273,61.84643118698254L124.90387363433837,63.754953553441496L125.36820030212402,64.78259245867093L125.83252696990967,63.79391313959509L126.2968536376953,67.0074561166794L126.76118030548096,67.86460544324214L127.2255069732666,58.9645912761266L127.68983364105225,55.07898874592095L128.1541603088379,54.78171573907029L128.61848697662353,70.32038950761631L129.08281364440919,64.84569928813309L129.54714031219484,53.27600773305987L130.01146697998047,69.86311468690516L130.47579364776612,55.7433325866359L130.94012031555175,57.74365486389776L131.4044469833374,56.96872521435475L131.86877365112304,59.485710276696864L132.3331003189087,64.69884584472898L132.79742698669435,53.88767024488398L133.26175365447997,44.498416163652365L133.72608032226563,49.51089579339063L134.1904069900513,52.12608311056738L134.6547336578369,54.578849953088024L135.11906032562254,52.191034038821456L135.5833869934082,47.309333776699646L136.04771366119385,52.72119629124441L136.51204032897948,48.928659882142625L136.97636699676514,43.61592648917099L137.4406936645508,42.38019591092626L137.90502033233642,62.917160148490936L138.36934700012208,64.09695699207379L138.83367366790773,50.77774538924399L139.29800033569336,55.24269204420514L139.76232700347902,46.09199363913007L140.22665367126464,36.45061162051309L140.6909803390503,36.00645905385906L141.15530700683595,33.960479028020075L141.61963367462158,31.170834101725035L142.08396034240724,30.870392558883538L142.5482870101929,30.83038045232084L143.01261367797852,31.70713307224105L143.47694034576418,32.309725940797364L143.94126701354983,31.563033300556697L144.40559368133543,30.445836657945307L144.8699203491211,28.689384897214552L145.33424701690672,29.86125010157079L145.79857368469237,29.300189623316754L146.26290035247803,30.581481201295475L146.72722702026365,26.36360846704136L147.1915536880493,29.057137315447022L147.65588035583497,28.880356856115412L148.1202070236206,27.44444161605034L148.58453369140625,37.311897655320166L149.0488603591919,43.0435556505991L149.51318702697753,40.71180608566601L149.9775136947632,39.19648431211948L150.44184036254885,32.88452117722193L150.90616703033447,34.28472093739981L151.37049369812013,35.39477130783598L151.83482036590578,37.25490588112581L152.29914703369138,34.26461410925586L152.76347370147704,43.36102256384919L153.2278003692627,49.51011905414768L153.69212703704832,46.27065484534069L154.15645370483398,43.52514894375594L154.62078037261963,41.59938615377817L155.08510704040526,50.05036555707426L155.54943370819092,44.366138610344365L156.01376037597657,50.11729060026845L156.4780870437622,55.7691477451054L156.94241371154786,51.41229116279263L157.40674037933348,44.82659564944615L157.87106704711914,41.44042908460162L158.3353937149048,37.80991872164583L158.79972038269042,34.51168795246457L159.26404705047608,33.498139056071636L159.72837371826174,44.610248223781554L160.19270038604736,38.171229515782215L160.65702705383302,37.637143302922055L161.12135372161868,51.75618395397133L161.58568038940427,45.0624382651861L162.05000705718993,41.48250367866257L162.5143337249756,39.118838105814774L162.9786603927612,52.97436843340809L163.44298706054687,56.241730332475186L163.90731372833253,44.30730612144265L164.37164039611815,41.112052338838765L164.8359670639038,47.35122044459854L165.30029373168946,51.807905026967845L165.7646203994751,61.16176644390937L166.22894706726075,64.56286281477826L166.6932737350464,53.25301747109789L167.15760040283203,46.95890016111878L167.6219270706177,41.1238219439L168.08625373840334,37.18525970676188L168.55058040618897,33.36486684264838L169.01490707397463,32.87349713391191L169.47923374176023,34.80985170515456L169.94356040954588,33.5191737696633L170.40788707733154,31.56642800396088L170.87221374511716,29.291100339715456L171.33654041290282,28.914100586203432L171.80086708068848,26.774724173406923L172.2651937484741,26.358807212114357L172.72952041625976,25.69939424248534L173.19384708404542,41.37424888157037L173.65817375183104,34.58048012163596L174.1225004196167,32.14660198771554L174.58682708740236,30.41586740403443L175.05115375518798,28.475498698223618L175.51548042297364,26.992511601193286L175.9798070907593,28.71946264003111L176.44413375854492,27.63685977696815L176.90846042633058,39.0378266770598L177.37278709411623,33.04293398700011L177.83711376190186,35.54932897995249L178.30144042968752,45.2606674037543L178.76576709747317,39.131983562368816L179.23009376525877,35.68424230993281L179.69442043304443,34.99933790444922L180.15874710083006,30.219963585771353L180.6230737686157,29.017253224522676L181.08740043640137,30.119274038447287L181.551727104187,28.134998704533956L182.01605377197265,26.80679933890775L182.4803804397583,27.236816846877332L182.94470710754393,28.985939749917577L183.4090337753296,43.517590488138666L183.87336044311525,38.97048996351842L184.33768711090087,32.277540613560916L184.80201377868653,30.459643773128164L185.26634044647219,34.07691843738027L185.7306671142578,29.68998743114497L186.19499378204347,26.935423057936447L186.65932044982912,27.97564848705335L187.12364711761472,29.06532281289239L187.58797378540038,29.19509873202341L188.05230045318604,41.37829992840156L188.51662712097166,32.88465757903694L188.98095378875732,29.652765380348484L189.44528045654297,30.04420483565201L189.9096071243286,29.118436204395636L190.37393379211426,28.43002401312461L190.8382604598999,28.218861147951742L191.30258712768554,41.382205300051396L191.7669137954712,49.19607717947957L192.23124046325682,38.99377954899941L192.69556713104248,51.39587737081338L193.15989379882814,57.26618890473513L193.62422046661376,60.785810821031035L194.08854713439942,75.30438658157797L194.55287380218508,65.20857775494547L195.0172004699707,77.6475605955379L195.48152713775636,53.69379363249277L195.94585380554201,59.28036991702514L196.4101804733276,59.66963894538004L196.87450714111327,49.14777361127955L197.33883380889893,44.537483887405216L197.80316047668455,47.53144080824225L198.2674871444702,40.472773083089635L198.73181381225587,64.41243359774899L199.1961404800415,46.34994436735417L199.66046714782715,37.16025688268985L200.1247938156128,30.130230222395426L200.58912048339843,30.432856515675468L201.0534471511841,27.335256493260317L201.51777381896974,37.7855313740649L201.98210048675537,42.52144991231356L202.44642715454103,32.03998241610864L202.91075382232668,49.78378960607026L203.3750804901123,52.575041239312526L203.83940715789797,51.06841356722393L204.30373382568357,37.9754394395699L204.76806049346922,32.50044505123432L205.23238716125488,26.100893769831714L205.6967138290405,24.26529794224726L206.16104049682616,24.35151989363203L206.62536716461182,46.05014244310158L207.08969383239744,38.2310066022539L207.5540205001831,30.677678696559525L208.01834716796876,28.135410676220005L208.48267383575438,23.289297049909038L208.94700050354004,38.57229684669781L209.4113271713257,38.0334804211339L209.87565383911132,34.18430986567361L210.33998050689698,29.866720162331006L210.80430717468263,27.199715591918505L211.26863384246826,23.968469983852458L211.73296051025392,22.95779455560242L212.19728717803957,24.91422653744891L212.6616138458252,27.749101856623895L213.12594051361086,30.64565804176243L213.5902671813965,29.12920895634707L214.0545938491821,28.055415576234623L214.51892051696777,42.1073937905677L214.9832471847534,39.071454475574825L215.44757385253905,37.98254442034343L215.9119005203247,33.094045508808136L216.37622718811033,44.02191261118131L216.840553855896,36.549191542054615L217.30488052368165,33.52884945975492L217.76920719146727,30.40319280798218L218.23353385925293,27.585612227344058L218.69786052703859,28.117165535118886L219.1621871948242,35.04975006978805L219.62651386260987,33.10267468196298L220.09084053039552,30.918144553450674L220.55516719818115,28.60361731114091L221.0194938659668,32.3092856083118L221.48382053375246,27.94411090709309L221.94814720153806,29.385902581108724L222.41247386932372,44.561508958077326L222.87680053710938,40.01291544466534L223.341127204895,36.31160853761483L223.80545387268066,45.72952345502395L224.26978054046631,38.128023484235115L224.73410720825194,34.017055682855414L225.1984338760376,31.430455177557377L225.66276054382325,33.319929420277816L226.12708721160888,28.35709167787195L226.59141387939454,27.198342950039603L227.05574054718016,38.37260199728655L227.52006721496582,34.474183901166214L227.98439388275148,30.52410766763802L228.4487205505371,30.738503966177745L228.91304721832276,31.14814087126092L229.37737388610842,30.826179479277613L229.84170055389404,29.77893303265168L230.3060272216797,29.602494012915372L230.77035388946535,27.359217768307218L231.23468055725095,43.0657224769522L231.6990072250366,36.6332539745425L232.16333389282227,32.18068218121161L232.6276605606079,29.898326122710046L233.09198722839355,27.588019831773067L233.5563138961792,27.121224421685696L234.02064056396483,25.07514312731888L234.4849672317505,24.58655960230928L234.94929389953614,25.759200082205496L235.41362056732177,25.179693778282996L235.87794723510743,26.159926393433977L236.34227390289308,24.411229780169208L236.8066005706787,25.40003532176442L237.27092723846437,24.941303432275532L237.73525390625002,24.78663103416369L238.19958057403565,28.331984438061312L238.6639072418213,26.355538599509117L239.1282339096069,29.553877173205706L239.59256057739256,34.72693578218909L240.05688724517822,30.692167035072572L240.52121391296384,29.612126287291602L240.9855405807495,28.642409447344562L241.44986724853516,26.71790984869989L241.91419391632078,27.47313415895772L242.37852058410644,24.49599064259442L242.8428472518921,26.498008396195132L243.30717391967772,27.33218374183005L243.77150058746338,25.61369581266436L244.23582725524903,23.655018267876414L244.70015392303466,24.51381762704645L245.16448059082032,22.871223233653012L245.62880725860597,25.68726112542575L246.0931339263916,25.986627666238405L246.55746059417726,25.903962060689054L247.0217872619629,25.765643573709212L247.48611392974854,26.91245908123696L247.9504405975342,26.128948218517138L248.41476726531985,27.808560939137692L248.87909393310545,29.425371139301944L249.3434206008911,27.679322828168097L249.80774726867674,29.634736574031052L250.2720739364624,27.578126098789312L250.73640060424805,26.651731213564005L251.20072727203367,26.75690336609543L251.66505393981933,26.52441750063457L252.129380607605,24.102433205054894L252.5937072753906,51.418147941859985L253.05803394317627,39.6710184271042L253.52236061096193,46.5661635534299L253.98668727874755,38.43411376241792L254.4510139465332,36.079933552937405L254.91534061431886,29.663969284355147" fill="none"></path></g></g></g></g><g opacity="0.2"><g><g><g><path style="fill: none;" stroke="rgb(255, 112, 67)" stroke-width="2px" d="M23.216333389282227,149.09698753960703L23.680660057067872,138.086190933613L24.144986724853517,136.85228159508065L24.60931339263916,82.25307688572016L25.073640060424804,82.99622178635708L25.537966728210446,82.12273501950624L26.002293395996094,123.98212303297768L26.46662006378174,137.28661413275472L26.93094673156738,155.62341184202853L27.395273399353027,176.78177287050252L27.859600067138672,162.84706631797434L28.323926734924317,131.42224655664182L28.788253402709962,139.96142598869716L29.252580070495604,116.86367650739848L29.716906738281253,228.09708422040393L30.181233406066895,112.14765475084133L30.64556007385254,132.04770822903816L31.10988674163818,173.1357682154835L31.574213409423827,125.37473166939283L32.038540077209475,126.86485618681952L32.50286674499512,134.9824432125517L32.96719341278076,116.24422270788864L33.43152008056641,130.76352200399143L33.89584674835205,135.61207915684054L34.3601734161377,122.48300707956562L34.82450008392334,150.01299121246925L35.28882675170899,171.20245554669324L35.75315341949463,136.28710691240298L36.21748008728027,127.86724283984333L36.681806755065914,120.84333315958668L37.14613342285156,183.81797446853375L37.61046009063721,158.82189108703645L38.074786758422846,158.09513314639403L38.539113426208495,116.57542084891276L39.00344009399414,133.82435893438338L39.467766761779785,139.41504005694557L39.932093429565434,144.75593492261706L40.39642009735107,166.52599429750776L40.86074676513672,173.67522721014666L41.325073432922366,176.2750923232382L41.78940010070801,110.37956085013472L42.25372676849366,118.36995935062166L42.71805343627929,178.86114883625152L43.18238010406494,170.64035044790177L43.64670677185059,177.99656748459867L44.11103343963623,159.36994310561712L44.57536010742188,137.17749450026758L45.039686775207514,140.7872527119337L45.50401344299316,145.36832143533277L45.96834011077881,177.4752905679402L46.43266677856445,174.92282743610082L46.896993446350095,170.97787790791259L47.361320114135744,106.95252437307771L47.825646781921385,74.86327325896411L48.289973449707034,90.73997831610225L48.754300117492676,84.3567424053773L49.21862678527832,82.75585254197875L49.682953453063966,95.00057206873468L50.14728012084961,98.77953090545785L50.61160678863526,83.18792363842687L51.07593345642089,86.6012647006522L51.54026012420654,86.51712731578202L52.00458679199219,86.7075207464018L52.46891345977783,91.62253122120119L52.93324012756348,90.65814764655663L53.39756679534913,96.29609945548502L53.86189346313476,88.82818669008968L54.32622013092041,89.11198964097639L54.79054679870605,95.23251353965543L55.2548734664917,95.3492573303497L55.719200134277344,90.73368974380432L56.183526802062985,80.05746872659127L56.647853469848634,80.7998960327651L57.112180137634276,90.85840177585521L57.576506805419925,88.27189478556066L58.040833473205566,100.54314267040134L58.50516014099121,71.8392939722564L58.96948680877686,85.87775517658555L59.433813476562506,99.91902563873393L59.89814014434814,95.05989698385771L60.36246681213379,103.76321766044964L60.82679347991943,102.31518899991721L61.29112014770508,92.07293380017941L61.75544681549073,99.82148259326321L62.21977348327636,96.8602667894685L62.68410015106201,100.63314757845228L63.14842681884765,92.36482044137422L63.6127534866333,96.85248190821126L64.07708015441895,97.0024478324708L64.54140682220459,91.37079817806995L65.00573348999023,97.74170821544637L65.47006015777588,85.58241638537118L65.93438682556152,95.00171523972477L66.39871349334717,103.34224550927752L66.86304016113282,96.96155853030471L67.32736682891846,90.2248881050198L67.7916934967041,95.65070586117247L68.25602016448974,82.84371145775525L68.7203468322754,95.67485506537487L69.18467350006104,96.54818110917562L69.64900016784668,91.72949580659413L70.11332683563232,80.70866419664162L70.57765350341798,92.15647583065275L71.04198017120362,87.68360993924381L71.50630683898926,72.18603697504072L71.97063350677492,90.22443536403364L72.43496017456054,87.99243362073132L72.89928684234619,80.43069028595185L73.36361351013183,83.82842083897398L73.82794017791748,70.6245423685539L74.29226684570312,87.4158589200218L74.75659351348877,92.02981248495148L75.22092018127442,90.7120623068949L75.68524684906006,91.85341327821429L76.14957351684569,86.09059097788986L76.61390018463135,85.71582104435656L77.07822685241699,84.01683579148417L77.54255352020263,94.53213455257232L78.00688018798829,86.1946806580206L78.47120685577393,87.71869736567211L78.93553352355957,93.61628254794044L79.39986019134521,77.5441077018751L79.86418685913087,85.29881943163316L80.32851352691651,85.70970224992845L80.79284019470214,86.36256833421777L81.2571668624878,92.88805999020776L81.72149353027343,83.11036231638086L82.18582019805908,84.82143122617417L82.65014686584473,83.08753511585806L83.11447353363037,83.83202012981404L83.57880020141602,82.34349378806854L84.04312686920167,71.76480676150648L84.50745353698731,81.39278978232117L84.97178020477294,70.5538593139403L85.43610687255858,79.87791391518047L85.90043354034424,92.70160314246277L86.36476020812988,83.88322739905502L86.82908687591552,91.74821664637233L87.29341354370118,86.1313218207108L87.75774021148682,86.72818158130573L88.22206687927246,91.37090909961155L88.68639354705812,75.95308193271278L89.15072021484376,82.46021720541842L89.61504688262939,78.26742707472754L90.07937355041503,93.9590957589648L90.54370021820068,80.69172262893908L91.00802688598633,80.33204028876995L91.47235355377197,88.62345042502798L91.93668022155762,73.92603829755535L92.40100688934326,78.46906545959133L92.8653335571289,94.91957897001349L93.32966022491456,73.26527414676227L93.79398689270019,71.30539690060837L94.25831356048583,74.0199560195793L94.72264022827149,72.29575988489192L95.18696689605713,73.25455550391464L95.65129356384277,65.22164179519503L96.11562023162841,63.87383697269769L96.57994689941407,69.15846745231266L97.04427356719971,68.41857662751387L97.50860023498535,65.37176787657843L97.97292690277101,69.62388744980221L98.43725357055663,63.33776844209473L98.90158023834228,60.418013950405836L99.36590690612793,58.60993184357717L99.83023357391357,59.487746805413224L100.29456024169922,60.60615117461731L100.75888690948487,69.47198718967924L101.22321357727051,70.89143317990218L101.68754024505616,60.520331927724314L102.15186691284178,64.48464398529788L102.61619358062744,73.24491098905673L103.08052024841308,62.782566228526804L103.54484691619872,67.99281221300312L104.00917358398438,74.41431039632191L104.47350025177002,71.04422647162038L104.93782691955566,68.35712948901818L105.40215358734132,67.48784868592887L105.86648025512696,72.94262375555707L106.3308069229126,69.84687370401647L106.79513359069826,70.98131358418193L107.25946025848388,67.28032014083496L107.72378692626953,58.2580458446715L108.18811359405517,70.27420120678198L108.65244026184082,59.102777316026675L109.11676692962646,76.28992462198197L109.5810935974121,77.75968711355559L110.04542026519776,70.43830623203968L110.5097469329834,59.26797175370365L110.97407360076903,59.09650313947729L111.43840026855469,69.739958920132L111.90272693634033,70.126393725174L112.36705360412597,68.6720844153109L112.83138027191163,58.12404752906801L113.29570693969727,56.711463535898275L113.76003360748291,65.51998565470512L114.22436027526855,61.25283479777735L114.68868694305421,57.13383352486521L115.15301361083985,57.357687202512665L115.61734027862548,68.4971639738198L116.08166694641113,66.36438211541574L116.54599361419677,69.51334055135617L117.01032028198242,68.33815002095162L117.47464694976807,80.60296049489516L117.93897361755371,34.590516031531735L118.40330028533936,74.64132378160818L118.86762695312501,65.96343922547184L119.33195362091065,59.330824944767116L119.79628028869628,63.229347162578776L120.26060695648192,70.82655652843623L120.72493362426758,72.51770370298553L121.18926029205322,72.46767016475121L121.65358695983886,72.6009797481295L122.11791362762452,64.83649447233245L122.58224029541016,57.92540600656953L123.0465669631958,64.9168814640584L123.51089363098146,59.83224747582457L123.9752202987671,61.055266554379216L124.43954696655273,61.573742985075114L124.90387363433837,66.61773710312994L125.36820030212402,66.32405081651508L125.83252696990967,62.31089416098135L126.2968536376953,71.82777058230586L126.76118030548096,69.15032943308623L127.2255069732666,45.61457002545333L127.68983364105225,49.25058495061245L128.1541603088379,54.3358062287943L128.61848697662353,93.62840016043533L129.08281364440919,56.63366395890827L129.54714031219484,35.921470400450005L130.01146697998047,94.74377511767312L130.47579364776612,34.56365943623203L130.94012031555175,60.74413827979055L131.4044469833374,55.80633074004025L131.86877365112304,63.26118787021001L132.3331003189087,72.5185491967772L132.79742698669435,37.670906845116434L133.26175365447997,30.414535041804953L133.72608032226563,57.02961523799807L134.1904069900513,56.048864086332486L134.6547336578369,58.25800021686899L135.11906032562254,48.6093101674216L135.5833869934082,39.98678338351695L136.04771366119385,60.83899006306159L136.51204032897948,43.23985526848992L136.97636699676514,35.64682639971355L137.4406936645508,40.52660004355917L137.90502033233642,93.72260650483797L138.36934700012208,65.86665225744804L138.83367366790773,30.798927984999324L139.29800033569336,61.94011202664689L139.76232700347902,32.36594603151741L140.22665367126464,21.988538592587616L140.6909803390503,35.34023020387801L141.15530700683595,30.89150898926161L141.61963367462158,26.98636671228249L142.08396034240724,30.419730244621263L142.5482870101929,30.77036229247682L143.01261367797852,33.02226200212138L143.47694034576418,33.21361524363181L143.94126701354983,30.442994340195696L144.40559368133543,28.77004169402818L144.8699203491211,26.054707256118462L145.33424701690672,31.61904790810516L145.79857368469237,28.458598905935673L146.26290035247803,32.503418568263555L146.72722702026365,20.03679936566016L147.1915536880493,33.09743058805546L147.65588035583497,28.615186167117997L148.1202070236206,25.290568755952762L148.58453369140625,52.11308171422486L149.0488603591919,51.64104264351751L149.51318702697753,37.21418173826635L149.9775136947632,36.92350165179968L150.44184036254885,23.416576474875626L150.90616703033447,36.385020577666666L151.37049369812013,37.059846863490236L151.83482036590578,40.04510774106055L152.29914703369138,29.779176451450894L152.76347370147704,57.00563524573924L153.2278003692627,58.733763789595415L153.69212703704832,41.41145853213018L154.15645370483398,39.40689009137881L154.62078037261963,38.710741968811476L155.08510704040526,62.726834662018405L155.54943370819092,35.83979819024955L156.01376037597657,58.744018585154535L156.4780870437622,64.24693346236084L156.94241371154786,44.87700628932345L157.40674037933348,34.9480523794264L157.87106704711914,36.36117923733485L158.3353937149048,32.36415317721219L158.79972038269042,29.564341798692652L159.26404705047608,31.977815711482208L159.72837371826174,61.278411975346444L160.19270038604736,28.512701453783222L160.65702705383302,36.83601398363183L161.12135372161868,72.93474493054521L161.58568038940427,35.02181973200831L162.05000705718993,36.11260179887722L162.5143337249756,35.57333974654307L162.9786603927612,73.75766392479807L163.44298706054687,61.14277318107585L163.90731372833253,26.405669804893904L164.37164039611815,36.319171664932895L164.8359670639038,56.709972603238185L165.30029373168946,58.49293190052184L165.7646203994751,75.19255856932166L166.22894706726075,69.66450737108153L166.6932737350464,36.28824945557736L167.15760040283203,37.51772419615017L167.6219270706177,32.37120461807183L168.08625373840334,31.27741635105471L168.55058040618897,27.63427754647816L169.01490707397463,32.13644257080722L169.47923374176023,37.714383562018526L169.94356040954588,31.58315686642638L170.40788707733154,28.637309355407268L170.87221374511716,25.87810884334735L171.33654041290282,28.34860095593538L171.80086708068848,23.565659554212147L172.2651937484741,25.73493177017542L172.72952041625976,24.71027478804183L173.19384708404542,64.88653084019793L173.65817375183104,24.38982698173436L174.1225004196167,28.49578478683489L174.58682708740236,27.819765528512733L175.05115375518798,25.564945639507357L175.51548042297364,24.768030955647788L175.9798070907593,31.309889198287863L176.44413375854492,26.012955482373684L176.90846042633058,56.13927702719724L177.37278709411623,24.050594951910625L177.83711376190186,39.30892146938109L178.30144042968752,59.82767503945696L178.76576709747317,29.938957800290638L179.23009376525877,30.51263043127878L179.69442043304443,33.97198129622382L180.15874710083006,23.050902107754553L180.6230737686157,27.213187682649618L181.08740043640137,31.77230525933416L181.551727104187,25.15858570366393L182.01605377197265,24.81450029046846L182.4803804397583,27.881843108831703L182.94470710754393,31.609624104478L183.4090337753296,65.31506659547028L183.87336044311525,32.149839176588046L184.33768711090087,22.238116588624678L184.80201377868653,27.732798512479008L185.26634044647219,39.502830433758476L185.7306671142578,23.109590921792005L186.19499378204347,22.803576498123675L186.65932044982912,29.5359866307287L187.12364711761472,30.699834301650952L187.58797378540038,29.389762610719856L188.05230045318604,59.653101722968856L188.51662712097166,20.14419405498998L188.98095378875732,24.804927082315857L189.44528045654297,30.631364018607286L189.9096071243286,27.729783257511087L190.37393379211426,27.39740572621801L190.8382604598999,27.90211685019247L191.30258712768554,61.12722152820086L191.7669137954712,60.916884998621796L192.23124046325682,23.690333103279215L192.69556713104248,69.9990241035343L193.15989379882814,66.0716562056178L193.62422046661376,66.0652436954749L194.08854713439942,97.08225022239839L194.55287380218508,50.06486451499667L195.0172004699707,96.30603485642656L195.48152713775636,17.763143187925095L195.94585380554201,67.66023434382365L196.4101804733276,60.253542487912455L196.87450714111327,33.36497561012877L197.33883380889893,37.622049301593734L197.80316047668455,52.022376189497834L198.2674871444702,29.884771495360667L198.73181381225587,100.32192436973807L199.1961404800415,19.256210521761915L199.66046714782715,23.375725655693373L200.1247938156128,19.58519023195379L200.58912048339843,30.886795955595545L201.0534471511841,22.688856459637606L201.51777381896974,53.46094369527174L201.98210048675537,49.62532771968657L202.44642715454103,16.317781171801215L202.91075382232668,76.39950039101268L203.3750804901123,56.76191868917597L203.83940715789797,48.80847205909103L204.30373382568357,18.33597824808885L204.76806049346922,24.287953468730933L205.23238716125488,16.501566847727815L205.6967138290405,21.511904200870617L206.16104049682616,24.480852820709146L206.62536716461182,78.59807626730593L207.08969383239744,26.502302840982395L207.5540205001831,19.34768683801792L208.01834716796876,24.322008645710753L208.48267383575438,16.02012661044259L208.94700050354004,61.496796541880954L209.4113271713257,37.22525578278811L209.87565383911132,28.410554032483134L210.33998050689698,23.390335607317127L210.80430717468263,23.199208736299767L211.26863384246826,19.12160157175333L211.73296051025392,21.441781413227375L212.19728717803957,27.84887451021868L212.6616138458252,32.00141483538641L213.12594051361086,34.99049231947015L213.5902671813965,26.854535328224046L214.0545938491821,26.444725506065993L214.51892051696777,63.18536111206724L214.9832471847534,34.5175455030855L215.44757385253905,36.349179337496366L215.9119005203247,25.76129714150514L216.37622718811033,60.41371326474109L216.840553855896,25.340109938364577L217.30488052368165,28.99833633630533L217.76920719146727,25.714707830323135L218.23353385925293,23.359241356386832L218.69786052703859,28.914495496781086L219.1621871948242,45.44862687179176L219.62651386260987,30.18206160022544L220.09084053039552,27.64134936068217L220.55516719818115,25.131826447676275L221.0194938659668,37.86778805406806L221.48382053375246,21.396348855265046L221.94814720153806,31.548590092132173L222.41247386932372,67.32491852353029L222.87680053710938,33.190025174547344L223.341127204895,30.759648177039054L223.80545387268066,59.85639583113762L224.26978054046631,26.72577352805186L224.73410720825194,27.85060398078585L225.1984338760376,27.550554419610336L225.66276054382325,36.154140784358475L226.12708721160888,20.912835064263163L226.59141387939454,25.460219858291055L227.05574054718016,55.133990568157L227.52006721496582,28.62655675698568L227.98439388275148,24.59899331734573L228.4487205505371,31.060098413987333L228.91304721832276,31.762596228885712L229.37737388610842,30.34323739130261L229.84170055389404,28.208063362712863L230.3060272216797,29.337835483310897L230.77035388946535,23.994303401394973L231.23468055725095,66.62547953991971L231.6990072250366,26.984551220927955L232.16333389282227,25.501824491215302L232.6276605606079,26.47479203495766L233.09198722839355,24.12256039536757L233.5563138961792,26.42103130655471L234.02064056396483,22.006021185768645L234.4849672317505,23.85368431479492L234.94929389953614,27.51816080204975L235.41362056732177,24.31043432239929L235.87794723510743,27.630275316160407L236.34227390289308,21.788184860272082L236.8066005706787,26.883243634157225L237.27092723846437,24.25320559804223L237.73525390625002,24.55462243699597L238.19958057403565,33.65001454390776L238.6639072418213,23.390869841680797L239.1282339096069,34.351385033750574L239.59256057739256,42.486523695664175L240.05688724517822,24.640013914397827L240.52121391296384,27.992065165620147L240.9855405807495,27.187834187424016L241.44986724853516,23.83116045073288L241.91419391632078,28.60597062434445L242.37852058410644,20.030275368049416L242.8428472518921,29.50103502659624L243.30717391967772,28.583446760282413L243.77150058746338,23.035963918915797L244.23582725524903,20.717001950694538L244.70015392303466,25.802016665801432L245.16448059082032,20.407331643562884L245.62880725860597,29.911317963084855L246.0931339263916,26.435677477457347L246.55746059417726,25.779963652365012L247.0217872619629,25.558165843239465L247.48611392974854,28.632682342528597L247.9504405975342,24.953681924437376L248.41476726531985,30.327980020068622L248.87909393310545,31.85058643954821L249.3434206008911,25.06025036146744L249.80774726867674,32.567857192825386L250.2720739364624,24.493210385926716L250.73640060424805,25.262138885726102L251.20072727203367,26.914661594892607L251.66505393981933,26.175688702443267L252.129380607605,20.469456761685393L252.5937072753906,92.39172004706762L253.05803394317627,22.05032415497047L253.52236061096193,56.90888124291848L253.98668727874755,26.23603907589998L254.4510139465332,32.54866323871664L254.91534061431886,20.04002288148172" fill="none"></path></g></g></g></g></g></g><g transform="translate(51, 178)" clip-path="url(#clip_1)"><clipPath id="clip_1"><rect width="278" height="21"></rect></clipPath><g><g><line x1="0" y1="0" x2="0" y2="5" style="visibility: inherit;" fill="rgb(0, 0, 0)" stroke="rgb(204, 204, 204)" stroke-width="1px"></line><line x1="23.216333389282227" y1="0" x2="23.216333389282227" y2="5" style="visibility: inherit;" fill="rgb(0, 0, 0)" stroke="rgb(204, 204, 204)" stroke-width="1px"></line><line x1="46.43266677856445" y1="0" x2="46.43266677856445" y2="5" style="visibility: inherit;" fill="rgb(0, 0, 0)" stroke="rgb(204, 204, 204)" stroke-width="1px"></line><line x1="69.64900016784668" y1="0" x2="69.64900016784668" y2="5" style="visibility: inherit;" fill="rgb(0, 0, 0)" stroke="rgb(204, 204, 204)" stroke-width="1px"></line><line x1="92.8653335571289" y1="0" x2="92.8653335571289" y2="5" style="visibility: inherit;" fill="rgb(0, 0, 0)" stroke="rgb(204, 204, 204)" stroke-width="1px"></line><line x1="116.08166694641113" y1="0" x2="116.08166694641113" y2="5" style="visibility: inherit;" fill="rgb(0, 0, 0)" stroke="rgb(204, 204, 204)" stroke-width="1px"></line><line x1="139.29800033569336" y1="0" x2="139.29800033569336" y2="5" style="visibility: inherit;" fill="rgb(0, 0, 0)" stroke="rgb(204, 204, 204)" stroke-width="1px"></line><line x1="162.5143337249756" y1="0" x2="162.5143337249756" y2="5" style="visibility: inherit;" fill="rgb(0, 0, 0)" stroke="rgb(204, 204, 204)" stroke-width="1px"></line><line x1="185.7306671142578" y1="0" x2="185.7306671142578" y2="5" style="visibility: inherit;" fill="rgb(0, 0, 0)" stroke="rgb(204, 204, 204)" stroke-width="1px"></line><line x1="208.94700050354004" y1="0" x2="208.94700050354004" y2="5" style="visibility: inherit;" fill="rgb(0, 0, 0)" stroke="rgb(204, 204, 204)" stroke-width="1px"></line><line x1="232.16333389282227" y1="0" x2="232.16333389282227" y2="5" style="visibility: inherit;" fill="rgb(0, 0, 0)" stroke="rgb(204, 204, 204)" stroke-width="1px"></line><line x1="255.3796672821045" y1="0" x2="255.3796672821045" y2="5" style="visibility: inherit;" fill="rgb(0, 0, 0)" stroke="rgb(204, 204, 204)" stroke-width="1px"></line><line x1="278.5960006713867" y1="0" x2="278.5960006713867" y2="5" style="visibility: inherit;" fill="rgb(0, 0, 0)" stroke="rgb(204, 204, 204)" stroke-width="1px"></line></g><g transform="translate(0, 8)"><text style="text-anchor: middle; visibility: hidden; font-family: &quot;Helvetica Neue&quot;, sans-serif; font-size: 12px; font-weight: 200;" x="0" y="0" dx="0em" dy="0.95em" fill="rgb(50, 49, 63)" stroke="none" stroke-width="1px">-50</text><text style="text-anchor: middle; visibility: inherit; font-family: &quot;Helvetica Neue&quot;, sans-serif; font-size: 12px; font-weight: 200;" x="23.216333389282227" y="0" dx="0em" dy="0.95em" fill="rgb(50, 49, 63)" stroke="none" stroke-width="1px">0</text><text style="text-anchor: middle; visibility: hidden; font-family: &quot;Helvetica Neue&quot;, sans-serif; font-size: 12px; font-weight: 200;" x="46.43266677856445" y="0" dx="0em" dy="0.95em" fill="rgb(50, 49, 63)" stroke="none" stroke-width="1px">50</text><text style="text-anchor: middle; visibility: inherit; font-family: &quot;Helvetica Neue&quot;, sans-serif; font-size: 12px; font-weight: 200;" x="69.64900016784668" y="0" dx="0em" dy="0.95em" fill="rgb(50, 49, 63)" stroke="none" stroke-width="1px">100</text><text style="text-anchor: middle; visibility: hidden; font-family: &quot;Helvetica Neue&quot;, sans-serif; font-size: 12px; font-weight: 200;" x="92.8653335571289" y="0" dx="0em" dy="0.95em" fill="rgb(50, 49, 63)" stroke="none" stroke-width="1px">150</text><text style="text-anchor: middle; visibility: inherit; font-family: &quot;Helvetica Neue&quot;, sans-serif; font-size: 12px; font-weight: 200;" x="116.08166694641113" y="0" dx="0em" dy="0.95em" fill="rgb(50, 49, 63)" stroke="none" stroke-width="1px">200</text><text style="text-anchor: middle; visibility: hidden; font-family: &quot;Helvetica Neue&quot;, sans-serif; font-size: 12px; font-weight: 200;" x="139.29800033569336" y="0" dx="0em" dy="0.95em" fill="rgb(50, 49, 63)" stroke="none" stroke-width="1px">250</text><text style="text-anchor: middle; visibility: inherit; font-family: &quot;Helvetica Neue&quot;, sans-serif; font-size: 12px; font-weight: 200;" x="162.5143337249756" y="0" dx="0em" dy="0.95em" fill="rgb(50, 49, 63)" stroke="none" stroke-width="1px">300</text><text style="text-anchor: middle; visibility: hidden; font-family: &quot;Helvetica Neue&quot;, sans-serif; font-size: 12px; font-weight: 200;" x="185.7306671142578" y="0" dx="0em" dy="0.95em" fill="rgb(50, 49, 63)" stroke="none" stroke-width="1px">350</text><text style="text-anchor: middle; visibility: inherit; font-family: &quot;Helvetica Neue&quot;, sans-serif; font-size: 12px; font-weight: 200;" x="208.94700050354004" y="0" dx="0em" dy="0.95em" fill="rgb(50, 49, 63)" stroke="none" stroke-width="1px">400</text><text style="text-anchor: middle; visibility: hidden; font-family: &quot;Helvetica Neue&quot;, sans-serif; font-size: 12px; font-weight: 200;" x="232.16333389282227" y="0" dx="0em" dy="0.95em" fill="rgb(50, 49, 63)" stroke="none" stroke-width="1px">450</text><text style="text-anchor: middle; visibility: inherit; font-family: &quot;Helvetica Neue&quot;, sans-serif; font-size: 12px; font-weight: 200;" x="255.3796672821045" y="0" dx="0em" dy="0.95em" fill="rgb(50, 49, 63)" stroke="none" stroke-width="1px">500</text><text style="text-anchor: middle; visibility: hidden; font-family: &quot;Helvetica Neue&quot;, sans-serif; font-size: 12px; font-weight: 200;" x="278.5960006713867" y="0" dx="0em" dy="0.95em" fill="rgb(50, 49, 63)" stroke="none" stroke-width="1px">550</text></g><line x1="0" y1="0" x2="278.5960006713867" y2="0" fill="rgb(0, 0, 0)" stroke="rgb(204, 204, 204)" stroke-width="1px"></line></g></g></g></g></svg>