<svg viewBox="0 0 330 200" xmlns="http://www.w3.org/2000/svg"><g><g><g><g><g><line x1="51.40399932861328" y1="178.02499961853027" x2="46.40399932861328" y2="178.02499961853027" style="visibility: inherit;" fill="rgb(0, 0, 0)" stroke="rgb(204, 204, 204)" stroke-width="1px"></line><line x1="51.40399932861328" y1="161.84090874411842" x2="46.40399932861328" y2="161.84090874411842" style="visibility: inherit;" fill="rgb(0, 0, 0)" stroke="rgb(204, 204, 204)" stroke-width="1px"></line><line x1="51.40399932861328" y1="145.65681786970657" x2="46.40399932861328" y2="145.65681786970657" style="visibility: inherit;" fill="rgb(0, 0, 0)" stroke="rgb(204, 204, 204)" stroke-width="1px"></line><line x1="51.40399932861328" y1="129.47272699529475" x2="46.40399932861328" y2="129.47272699529475" style="visibility: inherit;" fill="rgb(0, 0, 0)" stroke="rgb(204, 204, 204)" stroke-width="1px"></line><line x1="51.40399932861328" y1="113.2886361208829" x2="46.40399932861328" y2="113.2886361208829" style="visibility: inherit;" fill="rgb(0, 0, 0)" stroke="rgb(204, 204, 204)" stroke-width="1px"></line><line x1="51.40399932861328" y1="97.10454524647106" x2="46.40399932861328" y2="97.10454524647106" style="visibility: inherit;" fill="rgb(0, 0, 0)" stroke="rgb(204, 204, 204)" stroke-width="1px"></line><line x1="51.40399932861328" y1="80.92045437205923" x2="46.40399932861328" y2="80.92045437205923" style="visibility: inherit;" fill="rgb(0, 0, 0)" stroke="rgb(204, 204, 204)" stroke-width="1px"></line><line x1="51.40399932861328" y1="64.73636349764737" x2="46.40399932861328" y2="64.73636349764737" style="visibility: inherit;" fill="rgb(0, 0, 0)" stroke="rgb(204, 204, 204)" stroke-width="1px"></line><line x1="51.40399932861328" y1="48.552272623235524" x2="46.40399932861328" y2="48.552272623235524" style="visibility: inherit;" fill="rgb(0, 0, 0)" stroke="rgb(204, 204, 204)" stroke-width="1px"></line><line x1="51.40399932861328" y1="32.36818174882367" x2="46.40399932861328" y2="32.36818174882367" style="visibility: inherit;" fill="rgb(0, 0, 0)" stroke="rgb(204, 204, 204)" stroke-width="1px"></line><line x1="51.40399932861328" y1="16.18409087441185" x2="46.40399932861328" y2="16.18409087441185" style="visibility: inherit;" fill="rgb(0, 0, 0)" stroke="rgb(204, 204, 204)" stroke-width="1px"></line><line x1="51.40399932861328" y1="0" x2="46.40399932861328" y2="0" style="visibility: inherit;" fill="rgb(0, 0, 0)" stroke="rgb(204, 204, 204)" stroke-width="1px"></line></g><g transform="translate(41.40399932861328, 0)"><text style="text-anchor: end; visibility: hidden; font-family: &quot;Helvetica Neue&quot;, sans-serif; font-size: 12px; font-weight: 200;" x="0" y="178.02499961853027" dx="0em" dy="0.3em" fill="rgb(50, 49, 63)" stroke="none" stroke-width="1px">-250</text><text style="text-anchor: end; visibility: inherit; font-family: &quot;Helvetica Neue&quot;, sans-serif; font-size: 12px; font-weight: 200;" x="0" y="161.84090874411842" dx="0em" dy="0.3em" fill="rgb(50, 49, 63)" stroke="none" stroke-width="1px">-200</text><text style="text-anchor: end; visibility: hidden; font-family: &quot;Helvetica Neue&quot;, sans-serif; font-size: 12px; font-weight: 200;" x="0" y="145.65681786970657" dx="0em" dy="0.3em" fill="rgb(50, 49, 63)" stroke="none" stroke-width="1px">-150</text><text style="text-anchor: end; visibility: inherit; font-family: &quot;Helvetica Neue&quot;, sans-serif; font-size: 12px; font-weight: 200;" x="0" y="129.47272699529475" dx="0em" dy="0.3em" fill="rgb(50, 49, 63)" stroke="none" stroke-width="1px">-100</text><text style="text-anchor: end; visibility: hidden; font-family: &quot;Helvetica Neue&quot;, sans-serif; font-size: 12px; font-weight: 200;" x="0" y="113.2886361208829" dx="0em" dy="0.3em" fill="rgb(50, 49, 63)" stroke="none" stroke-width="1px">-50</text><text style="text-anchor: end; visibility: inherit; font-family: &quot;Helvetica Neue&quot;, sans-serif; font-size: 12px; font-weight: 200;" x="0" y="97.10454524647106" dx="0em" dy="0.3em" fill="rgb(50, 49, 63)" stroke="none" stroke-width="1px">0</text><text style="text-anchor: end; visibility: hidden; font-family: &quot;Helvetica Neue&quot;, sans-serif; font-size: 12px; font-weight: 200;" x="0" y="80.92045437205923" dx="0em" dy="0.3em" fill="rgb(50, 49, 63)" stroke="none" stroke-width="1px">50</text><text style="text-anchor: end; visibility: inherit; font-family: &quot;Helvetica Neue&quot;, sans-serif; font-size: 12px; font-weight: 200;" x="0" y="64.73636349764737" dx="0em" dy="0.3em" fill="rgb(50, 49, 63)" stroke="none" stroke-width="1px">100</text><text style="text-anchor: end; visibility: hidden; font-family: &quot;Helvetica Neue&quot;, sans-serif; font-size: 12px; font-weight: 200;" x="0" y="48.552272623235524" dx="0em" dy="0.3em" fill="rgb(50, 49, 63)" stroke="none" stroke-width="1px">150</text><text style="text-anchor: end; visibility: inherit; font-family: &quot;Helvetica Neue&quot;, sans-serif; font-size: 12px; font-weight: 200;" x="0" y="32.36818174882367" dx="0em" dy="0.3em" fill="rgb(50, 49, 63)" stroke="none" stroke-width="1px">200</text><text style="text-anchor: end; visibility: hidden; font-family: &quot;Helvetica Neue&quot;, sans-serif; font-size: 12px; font-weight: 200;" x="0" y="16.18409087441185" dx="0em" dy="0.3em" fill="rgb(50, 49, 63)" stroke="none" stroke-width="1px">250</text><text style="text-anchor: end; visibility: hidden; font-family: &quot;Helvetica Neue&quot;, sans-serif; font-size: 12px; font-weight: 200;" x="0" y="0" dx="0em" dy="0.3em" fill="rgb(50, 49, 63)" stroke="none" stroke-width="1px">300</text></g><line x1="51.40399932861328" y1="0" x2="51.40399932861328" y2="178.02499961853027" fill="rgb(0, 0, 0)" stroke="rgb(204, 204, 204)" stroke-width="1px"></line></g></g><g transform="translate(51, 0)" clip-path="url(#clip_0)"><clipPath id="clip_0"><rect width="278" height="178"></rect></clipPath><g><g><g><line x1="0" y1="0" x2="0" y2="178.02499961853027" fill="rgb(0, 0, 0)" stroke="rgb(60, 60, 60)" stroke-width="1px" opacity="0.25"></line><line x1="23.216333389282227" y1="0" x2="23.216333389282227" y2="178.02499961853027" fill="rgb(0, 0, 0)" stroke="rgb(60, 60, 60)" stroke-width="1px" opacity="0.25"></line><line x1="46.43266677856445" y1="0" x2="46.43266677856445" y2="178.02499961853027" fill="rgb(0, 0, 0)" stroke="rgb(60, 60, 60)" stroke-width="1px" opacity="0.25"></line><line x1="69.64900016784668" y1="0" x2="69.64900016784668" y2="178.02499961853027" fill="rgb(0, 0, 0)" stroke="rgb(60, 60, 60)" stroke-width="1px" opacity="0.25"></line><line x1="92.8653335571289" y1="0" x2="92.8653335571289" y2="178.02499961853027" fill="rgb(0, 0, 0)" stroke="rgb(60, 60, 60)" stroke-width="1px" opacity="0.25"></line><line x1="116.08166694641113" y1="0" x2="116.08166694641113" y2="178.02499961853027" fill="rgb(0, 0, 0)" stroke="rgb(60, 60, 60)" stroke-width="1px" opacity="0.25"></line><line x1="139.29800033569336" y1="0" x2="139.29800033569336" y2="178.02499961853027" fill="rgb(0, 0, 0)" stroke="rgb(60, 60, 60)" stroke-width="1px" opacity="0.25"></line><line x1="162.5143337249756" y1="0" x2="162.5143337249756" y2="178.02499961853027" fill="rgb(0, 0, 0)" stroke="rgb(60, 60, 60)" stroke-width="1px" opacity="0.25"></line><line x1="185.7306671142578" y1="0" x2="185.7306671142578" y2="178.02499961853027" fill="rgb(0, 0, 0)" stroke="rgb(60, 60, 60)" stroke-width="1px" opacity="0.25"></line><line x1="208.94700050354004" y1="0" x2="208.94700050354004" y2="178.02499961853027" fill="rgb(0, 0, 0)" stroke="rgb(60, 60, 60)" stroke-width="1px" opacity="0.25"></line><line x1="232.16333389282227" y1="0" x2="232.16333389282227" y2="178.02499961853027" fill="rgb(0, 0, 0)" stroke="rgb(60, 60, 60)" stroke-width="1px" opacity="0.25"></line><line x1="255.3796672821045" y1="0" x2="255.3796672821045" y2="178.02499961853027" fill="rgb(0, 0, 0)" stroke="rgb(60, 60, 60)" stroke-width="1px" opacity="0.25"></line><line x1="278.5960006713867" y1="0" x2="278.5960006713867" y2="178.02499961853027" fill="rgb(0, 0, 0)" stroke="rgb(60, 60, 60)" stroke-width="1px" opacity="0.25"></line></g><g><line x1="0" y1="178.02499961853027" x2="278.5960006713867" y2="178.02499961853027" fill="rgb(0, 0, 0)" stroke="rgb(60, 60, 60)" stroke-width="1px" opacity="0.25"></line><line x1="0" y1="161.84090874411842" x2="278.5960006713867" y2="161.84090874411842" fill="rgb(0, 0, 0)" stroke="rgb(60, 60, 60)" stroke-width="1px" opacity="0.25"></line><line x1="0" y1="145.65681786970657" x2="278.5960006713867" y2="145.65681786970657" fill="rgb(0, 0, 0)" stroke="rgb(60, 60, 60)" stroke-width="1px" opacity="0.25"></line><line x1="0" y1="129.47272699529475" x2="278.5960006713867" y2="129.47272699529475" fill="rgb(0, 0, 0)" stroke="rgb(60, 60, 60)" stroke-width="1px" opacity="0.25"></line><line x1="0" y1="113.2886361208829" x2="278.5960006713867" y2="113.2886361208829" fill="rgb(0, 0, 0)" stroke="rgb(60, 60, 60)" stroke-width="1px" opacity="0.25"></line><line x1="0" y1="97.10454524647106" x2="278.5960006713867" y2="97.10454524647106" fill="rgb(0, 0, 0)" stroke="rgb(60, 60, 60)" stroke-width="1px" opacity="0.25"></line><line x1="0" y1="80.92045437205923" x2="278.5960006713867" y2="80.92045437205923" fill="rgb(0, 0, 0)" stroke="rgb(60, 60, 60)" stroke-width="1px" opacity="0.25"></line><line x1="0" y1="64.73636349764737" x2="278.5960006713867" y2="64.73636349764737" fill="rgb(0, 0, 0)" stroke="rgb(60, 60, 60)" stroke-width="1px" opacity="0.25"></line><line x1="0" y1="48.552272623235524" x2="278.5960006713867" y2="48.552272623235524" fill="rgb(0, 0, 0)" stroke="rgb(60, 60, 60)" stroke-width="1px" opacity="0.25"></line><line x1="0" y1="32.36818174882367" x2="278.5960006713867" y2="32.36818174882367" fill="rgb(0, 0, 0)" stroke="rgb(60, 60, 60)" stroke-width="1px" opacity="0.25"></line><line x1="0" y1="16.18409087441185" x2="278.5960006713867" y2="16.18409087441185" fill="rgb(0, 0, 0)" stroke="rgb(60, 60, 60)" stroke-width="1px" opacity="0.25"></line><line x1="0" y1="0" x2="278.5960006713867" y2="0" fill="rgb(0, 0, 0)" stroke="rgb(60, 60, 60)" stroke-width="1px" opacity="0.25"></line></g></g></g><g><g><line x1="0" y1="97.10454524647106" x2="278.5960006713867" y2="97.10454524647106" fill="rgb(0, 0, 0)" stroke="rgb(153, 153, 153)" stroke-width="1.5px"></line></g></g><g><g><line x1="23.216333389282227" y1="0" x2="23.216333389282227" y2="178.02499961853027" fill="rgb(0, 0, 0)" stroke="rgb(153, 153, 153)" stroke-width="1.5px"></line></g></g><g><g><g><g><g><path style="fill: none;" stroke="rgb(0, 119, 187)" stroke-width="2px" d="M30.181233406066895,182.9954304582911L30.64556007385254,147.93525868760642L31.10988674163818,166.05003004124794L31.574213409423827,153.67009252042826L32.038540077209475,194.29906465500383L32.50286674499512,169.88804906494897L32.96719341278076,163.69465845572245L33.43152008056641,160.74696830787246L33.89584674835205,150.55451582889555L34.3601734161377,152.3402412102469L34.82450008392334,142.87366458072464L35.28882675170899,134.61048500673184L35.75315341949463,158.70402353102006L36.21748008728027,147.32453209777842L36.681806755065914,134.12221167691112L37.14613342285156,106.9844358461984L37.61046009063721,125.37612392710243L38.074786758422846,123.5066006136721L38.539113426208495,106.27625673268315L39.00344009399414,109.83944911023914L39.467766761779785,115.58154744695813L39.932093429565434,122.3971018690008L40.39642009735107,130.83056790728844L40.86074676513672,134.9405591889382L41.325073432922366,131.83126107659007L41.78940010070801,125.627478566923L42.25372676849366,128.42925573884202L42.71805343627929,128.9298316935323L43.18238010406494,125.22520646545384L43.64670677185059,124.58969117824272L44.11103343963623,125.72537974672102L44.57536010742188,127.77836791886048L45.039686775207514,130.7531421681363L45.50401344299316,125.3201190093482L45.96834011077881,129.4279203579465L46.43266677856445,126.2081773068617L46.896993446350095,122.62494918043541L47.361320114135744,132.67908565110702L47.825646781921385,121.92137460282436L48.289973449707034,150.88025994505736L48.754300117492676,174.00653830159447L49.21862678527832,152.28180975302672L49.682953453063966,155.1756385582211L50.14728012084961,137.4363442418326L50.61160678863526,127.40104014853307L51.07593345642089,115.98943903383986L51.54026012420654,113.63728184149728L52.00458679199219,111.66512096200537L52.46891345977783,108.27341218387659L52.93324012756348,133.16513188070508L53.39756679534913,125.62860192180845L53.86189346313476,126.92190517146977L54.32622013092041,126.37416500149448L54.79054679870605,124.87760621515L55.2548734664917,120.12199868223914L55.719200134277344,119.40193816501811L56.183526802062985,115.88382963562358L56.647853469848634,110.47668778707403L57.112180137634276,104.0907254283348L57.576506805419925,102.49549483511271L58.040833473205566,111.09376837141424L58.50516014099121,109.13473640373894L58.96948680877686,113.74913622151396L59.433813476562506,108.2466908358549L59.89814014434814,109.79751105492672L60.36246681213379,100.87893953930991L60.82679347991943,82.33268207258045L61.29112014770508,106.64983698647379L61.75544681549073,116.14999035637251L62.21977348327636,117.83128635018555L62.68410015106201,92.66649213740664L63.14842681884765,96.72152716544556L63.6127534866333,102.87831348884268L64.07708015441895,109.28122860863888L64.54140682220459,97.30269497488084L65.00573348999023,105.76044720331319L65.47006015777588,84.5299104815324L65.93438682556152,70.20058681862781L66.39871349334717,65.64712864432381L66.86304016113282,92.33080450623298L67.32736682891846,103.70185973507922L67.7916934967041,84.60722415628244L68.25602016448974,85.00683626698599L68.7203468322754,80.29547980342227L69.18467350006104,80.89939932060105L69.64900016784668,90.07201365584389L70.11332683563232,103.90126451547637L70.57765350341798,94.23046863767927L71.04198017120362,93.72839607437271L71.50630683898926,84.8707483265649L71.97063350677492,71.2202603724002L72.43496017456054,73.94496437785455L72.89928684234619,63.30596646316131L73.36361351013183,77.4008959973922L73.82794017791748,71.06126643431135L74.29226684570312,70.8465133465593L74.75659351348877,67.56284047377945L75.22092018127442,74.20755999610304L75.68524684906006,75.68542002922109L76.14957351684569,66.98489012715542L76.61390018463135,79.90465327816585L77.07822685241699,91.06678281174428L77.54255352020263,77.1428182387647L78.00688018798829,75.66437950945692L78.47120685577393,71.35669546385549L78.93553352355957,91.3915340804054L79.39986019134521,75.92967383765637L79.86418685913087,85.31975363129888L80.32851352691651,70.51335708788349L80.79284019470214,62.25973461458538L81.2571668624878,61.28256607495315L81.72149353027343,63.15671794397622L82.18582019805908,58.87339743563152L82.65014686584473,76.45309710751764L83.11447353363037,70.35741675155519L83.57880020141602,80.17981804886224L84.04312686920167,74.15751269288776L84.50745353698731,72.22712182147202L84.97178020477294,64.92148622550808L85.43610687255858,69.1858788352448L85.90043354034424,78.14067178650672L86.36476020812988,70.63956654417292L86.82908687591552,72.56861432415974L87.29341354370118,66.25406436575105L87.75774021148682,65.36047404694999L88.22206687927246,63.47376320143107L88.68639354705812,58.199944933862966L89.15072021484376,58.25674738363966L89.61504688262939,92.92278698394763L90.07937355041503,81.74029621582824L90.54370021820068,88.58502015240046L91.00802688598633,78.05971481627556L91.47235355377197,74.21775783000415L91.93668022155762,70.20814223911145L92.40100688934326,69.43010382660576L92.8653335571289,70.7308326253737L93.32966022491456,57.59357307790634L93.79398689270019,57.99214665532894L94.25831356048583,60.90436149820863L94.72264022827149,60.30616282939479L95.18696689605713,81.08196038205243L95.65129356384277,70.66235306860308L96.11562023162841,77.96526881204585L96.57994689941407,68.98161217570973L97.04427356719971,67.46738053232122L97.50860023498535,79.1156427249711L97.97292690277101,72.66571256810278L98.43725357055663,79.88279537849304L98.90158023834228,61.58487746417086L99.36590690612793,59.08468388263485L99.83023357391357,40.34171687427653L100.29456024169922,52.015529279839896L100.75888690948487,53.60719649024695L101.22321357727051,54.16443406155071L101.68754024505616,54.34886237486242L102.15186691284178,58.62106808121038L102.61619358062744,59.006685959231646L103.08052024841308,45.38202120603589L103.54484691619872,59.950817915430136L104.00917358398438,63.161851624331305L104.47350025177002,65.34150532954858L104.93782691955566,73.45115070291563L105.40215358734132,65.66170785845006L105.86648025512696,47.54570656794829L106.3308069229126,50.3724913020185L106.79513359069826,54.31490881927671L107.25946025848388,55.4618061421848L107.72378692626953,41.90044223672365L108.18811359405517,50.30082211531884L108.65244026184082,50.775578657633204L109.11676692962646,72.36749177867755L109.5810935974121,68.65980407712219L110.04542026519776,64.63458194480515L110.5097469329834,69.98632169717305L110.97407360076903,71.09598719408228L111.43840026855469,56.489254855891744L111.90272693634033,44.745568645952204L112.36705360412597,54.261385433139054L112.83138027191163,56.94679949680547L113.29570693969727,46.01242794096953L113.76003360748291,50.97111222210893L114.22436027526855,74.39755656315147L114.68868694305421,63.660068145067655L115.15301361083985,69.58022072417387L115.61734027862548,63.16755543992096L116.08166694641113,58.69214906939837L116.54599361419677,49.10207904062236L117.01032028198242,59.062630226849706L117.47464694976807,63.71851534648923L117.93897361755371,66.41254152263436L118.40330028533936,65.18064119729873L118.86762695312501,69.55996273956485L119.33195362091065,75.00786958363595L119.79628028869628,68.73267433674994L120.26060695648192,70.22053732789722L120.72493362426758,63.60979041851009L121.18926029205322,66.76139466684944L121.65358695983886,59.07608721711911L122.11791362762452,71.36304699173088L122.58224029541016,67.74574755219012L123.0465669631958,74.0697490938386L123.51089363098146,73.26983936243197L123.9752202987671,76.65284211046152L124.43954696655273,71.1221529530172L124.90387363433837,61.27071073525592L125.36820030212402,79.92110728815729L125.83252696990967,62.084890293373306L126.2968536376953,64.4546010450006L126.76118030548096,62.321241859618596L127.2255069732666,62.40410776470287L127.68983364105225,56.92187508738512L128.1541603088379,59.18205668575561L128.61848697662353,60.376549954095296L129.08281364440919,59.53453245533207L129.54714031219484,78.42758819390174L130.01146697998047,67.50833047178259L130.47579364776612,65.85327332280322L130.94012031555175,66.87105997123996L131.4044469833374,67.82175492862856L131.86877365112304,66.19981137850148L132.3331003189087,64.70219140710849L132.79742698669435,64.19722453526235L133.26175365447997,60.39887392709076L133.72608032226563,67.51770702120675L134.1904069900513,67.11859721146168L134.6547336578369,61.16791343069255L135.11906032562254,57.4568505316398L135.5833869934082,50.63306567237581L136.04771366119385,55.60780255959459L136.51204032897948,57.24045520674183L136.97636699676514,58.45141093887699L137.4406936645508,51.03640479660476L137.90502033233642,42.21440127930322L138.36934700012208,60.89374029891049L138.83367366790773,83.98221308721781L139.29800033569336,70.89301224415337L139.76232700347902,60.28896874810364L140.22665367126464,62.99576579332734L140.6909803390503,59.38702287328259L141.15530700683595,59.18166124084098L141.61963367462158,61.078702626215374L142.08396034240724,65.78080176953884L142.5482870101929,62.806719475653736L143.01261367797852,69.79423108377775L143.47694034576418,66.14544724014807L143.94126701354983,59.298057950782024L144.40559368133543,65.76390969122382L144.8699203491211,66.94422869512454L145.33424701690672,64.47155873287643L145.79857368469237,54.664705222237245L146.26290035247803,54.81656952864569L146.72722702026365,51.70487984048961L147.1915536880493,61.5484436321469L147.65588035583497,65.62065098844138L148.1202070236206,61.309548434297255L148.58453369140625,57.17195037975456L149.0488603591919,57.38737649760762L149.51318702697753,53.45085644280634L149.9775136947632,54.238996338822446L150.44184036254885,54.59717316164327L150.90616703033447,55.77734015969497L151.37049369812013,52.02534633149524L151.83482036590578,52.07273149687968L152.29914703369138,61.45375253564781L152.76347370147704,61.94781020803018L153.2278003692627,67.22152643392869L153.69212703704832,66.40986023086036L154.15645370483398,65.50135404116702L154.62078037261963,66.80365086660532L155.08510704040526,65.16480999039193L155.54943370819092,62.61697189604483L156.01376037597657,60.96204320616103L156.4780870437622,59.80282270953366L156.94241371154786,59.01655123994328L157.40674037933348,56.82557640786018L157.87106704711914,61.217978662491404L158.3353937149048,63.96076210432901L158.79972038269042,63.55560045274565L159.26404705047608,60.23676460300209L159.72837371826174,60.94302032697749L160.19270038604736,61.00078157006935L160.65702705383302,68.03773060188993L161.12135372161868,64.1364287618111L161.58568038940427,54.69816814347004L162.05000705718993,55.09362701633053L162.5143337249756,50.870340096519826L162.9786603927612,60.30921198178332L163.44298706054687,66.25601353085759L163.90731372833253,84.39930800904604L164.37164039611815,74.73090599043279L164.8359670639038,63.71868827315281L165.30029373168946,59.15880911295143L165.7646203994751,55.16325280372273L166.22894706726075,64.1139903724035L166.6932737350464,66.41435907930358L167.15760040283203,63.66887385420975L167.6219270706177,64.80973490600573L168.08625373840334,70.82063893522701L168.55058040618897,58.124150646921095L169.01490707397463,53.19084313765637L169.47923374176023,53.82784592602572L169.94356040954588,60.79366642330227L170.40788707733154,62.32739176400301L170.87221374511716,55.210294703180594L171.33654041290282,57.61608952480833L171.80086708068848,56.944931807198316L172.2651937484741,58.793850795131874L172.72952041625976,55.96289169079773L173.19384708404542,57.946101085669966L173.65817375183104,119.5624386041375L174.1225004196167,96.04496405255756L174.58682708740236,82.28800253224456L175.05115375518798,72.77324753257568L175.51548042297364,59.8112359968748L175.9798070907593,57.63378773710576L176.44413375854492,56.016389442588405L176.90846042633058,56.70481484151263L177.37278709411623,46.12526790035926L177.83711376190186,45.21183424362053L178.30144042968752,46.42559567666143L178.76576709747317,51.79936819841775L179.23009376525877,48.982119675799936L179.69442043304443,52.606758765506555L180.15874710083006,57.60252388983827L180.6230737686157,53.371517415822794L181.08740043640137,53.53322869868971L181.551727104187,61.33741904331464L182.01605377197265,58.087857831239816L182.4803804397583,59.95290414136399L182.94470710754393,60.697039671522404L183.4090337753296,62.77310109046799L183.87336044311525,54.18764951130767L184.33768711090087,71.13580870392089L184.80201377868653,70.97139164325074L185.26634044647219,64.75099741237011L185.7306671142578,65.40793195527365L186.19499378204347,59.2666744731126L186.65932044982912,53.5576877055496L187.12364711761472,58.630689781853036L187.58797378540038,61.8819988495393L188.05230045318604,60.26447575051715L188.51662712097166,58.66287816345776L188.98095378875732,57.759272180818044L189.44528045654297,66.78540952544607L189.9096071243286,62.07461569097954L190.37393379211426,58.421555519501126L190.8382604598999,52.94862218548559L191.30258712768554,60.9440997875552L191.7669137954712,59.27569189909512L192.23124046325682,58.08069589093863L192.69556713104248,54.97715731714845L193.15989379882814,60.35511030523749L193.62422046661376,59.67538098077921L194.08854713439942,64.73599399111905L194.55287380218508,64.69655576823038L195.0172004699707,56.5904557134494L195.48152713775636,56.38332924715205L195.94585380554201,58.07875504846086L196.4101804733276,54.282099915421384L196.87450714111327,61.60971741363109L197.33883380889893,62.70357369871995L197.80316047668455,60.65401000905749L198.2674871444702,61.51034618737424L198.73181381225587,61.31546073976047L199.1961404800415,58.20180856683032L199.66046714782715,63.85787710149147L200.1247938156128,58.70532550309082L200.58912048339843,59.32726402669941L201.0534471511841,54.76448389846159L201.51777381896974,56.209644683294655L201.98210048675537,58.88548123515761L202.44642715454103,57.43593374738447L202.91075382232668,59.15702690777164L203.3750804901123,39.804854280734276L203.83940715789797,44.57371563301351L204.30373382568357,44.594428156367144L204.76806049346922,43.88933660925039L205.23238716125488,51.73262317840957L205.6967138290405,62.72197999392836L206.16104049682616,67.09585820452605L206.62536716461182,63.35510092336003L207.08969383239744,54.38030310234072L207.5540205001831,51.83186611479958L208.01834716796876,53.83357117933548L208.48267383575438,51.34825857282438L208.94700050354004,57.68800178659349L209.4113271713257,57.409969885744204L209.87565383911132,57.55012691423239L210.33998050689698,59.55242311696112L210.80430717468263,61.08437650192472L211.26863384246826,56.43222562711091L211.73296051025392,57.59196222540923L212.19728717803957,59.38644357107219L212.6616138458252,54.558478839292405L213.12594051361086,50.79214096722012L213.5902671813965,54.339223437305506L214.0545938491821,58.517949028577206L214.51892051696777,54.224435591843644L214.9832471847534,38.10532342369146L215.44757385253905,45.577260366710675L215.9119005203247,48.71910179440184L216.37622718811033,49.29052945434634L216.840553855896,56.46720831169837L217.30488052368165,37.94430983382392L217.76920719146727,45.173207827296125L218.23353385925293,44.704030669240126L218.69786052703859,49.521922588327556L219.1621871948242,52.8883706389571L219.62651386260987,48.7158925759764L220.09084053039552,57.31881613683581L220.55516719818115,53.99334122312845L221.0194938659668,54.95454809693251L221.48382053375246,51.86360893131672L221.94814720153806,49.13840377177007L222.41247386932372,45.69280404528908L222.87680053710938,47.98186680665518L223.341127204895,46.22522384496L223.80545387268066,50.08522847614216L224.26978054046631,52.07922375584661L224.73410720825194,51.6869722298966L225.1984338760376,59.011454740676754L225.66276054382325,56.22569854775382L226.12708721160888,61.24785995992448L226.59141387939454,58.69668428413837L227.05574054718016,60.44641823598401L227.52006721496582,44.67633170637643L227.98439388275148,49.32621237639282L228.4487205505371,52.615791986799124L228.91304721832276,52.111185875546525L229.37737388610842,58.97144116677933L229.84170055389404,53.30440030980344L230.3060272216797,55.3909125267476L230.77035388946535,44.84221923467277L231.23468055725095,51.03872504017181L231.6990072250366,37.750442334714336L232.16333389282227,39.42555961342896L232.6276605606079,37.47690103107652L233.09198722839355,40.444884622855454L233.5563138961792,30.441985266263146L234.02064056396483,42.05710666358644L234.4849672317505,46.89238851478689L234.94929389953614,50.07877061761616L235.41362056732177,52.534742520637096L235.87794723510743,51.68426690083916L236.34227390289308,48.91684414116335L236.8066005706787,57.625030965514895L237.27092723846437,59.88509841385212L237.73525390625002,54.90742320498116L238.19958057403565,53.69964564598189L238.6639072418213,56.22971693833047L239.1282339096069,52.285153912539755L239.59256057739256,51.163862099090764L240.05688724517822,55.14699925232645L240.52121391296384,53.74112251850471L240.9855405807495,51.80669748069346L241.44986724853516,52.06408847020475L241.91419391632078,52.83760602739541L242.37852058410644,37.60369170271372L242.8428472518921,43.73827805802847L243.30717391967772,44.45717529104934L243.77150058746338,47.90606621811261L244.23582725524903,52.87527890007257L244.70015392303466,52.3388055601995L245.16448059082032,52.47208528293929L245.62880725860597,52.08977328941545L246.0931339263916,54.5716539705148L246.55746059417726,56.23600993339768L247.0217872619629,53.56294679586158L247.48611392974854,51.622731909333254L247.9504405975342,48.4047900848112L248.41476726531985,46.21555170379767L248.87909393310545,34.12820287801853L249.3434206008911,39.689346021469504L249.80774726867674,31.552149595422975L250.2720739364624,40.983654539323766L250.73640060424805,45.388061293641755L251.20072727203367,42.533156172554555L251.66505393981933,51.57451086419492L252.129380607605,47.59152963181654L252.5937072753906,37.02447215047894L253.05803394317627,43.706644291875364L253.52236061096193,42.77750816746217L253.98668727874755,47.526250947663954L254.4510139465332,48.63544804357471L254.91534061431886,50.618094865803755" fill="none"></path></g></g></g></g><g opacity="0.2"><g><g><g><path style="fill: none;" stroke="rgb(0, 119, 187)" stroke-width="2px" d="M26.93094673156738,262.52720152902384L27.395273399353027,166.19658160230003L27.859600067138672,224.08397000933763L28.323926734924317,161.2008301231922L28.788253402709962,208.20186889701841L29.716906738281253,237.59142324688463L30.181233406066895,126.00431945850406L30.64556007385254,95.35983732127029L31.10988674163818,193.21758773322588L31.574213409423827,135.102072198076L32.038540077209475,255.23880920788264L32.50286674499512,133.27286443797695L32.96719341278076,154.40477633803877L33.43152008056641,156.32549128309745L33.89584674835205,135.26595784974677L34.3601734161377,155.01881659010212L34.82450008392334,128.6738400070663L35.28882675170899,122.21573678895439L35.75315341949463,194.84429432819545L36.21748008728027,130.25530543003586L36.681806755065914,114.31873834233201L37.14613342285156,66.27778109931103L37.61046009063721,152.96365238912816L38.074786758422846,120.70231586671017L38.539113426208495,80.43074214537393L39.00344009399414,115.18423752343864L39.467766761779785,124.19469480397049L39.932093429565434,132.62043339661707L40.39642009735107,143.48076688643215L40.86074676513672,141.10554608852107L41.325073432922366,127.16731391845875L41.78940010070801,116.32180481486176L42.25372676849366,132.6319214933498L42.71805343627929,129.68069562520634L43.18238010406494,119.66826862494065L43.64670677185059,123.6364182475912L44.11103343963623,127.4289125992614L44.57536010742188,130.8578501768776L45.039686775207514,135.215303541883L45.50401344299316,117.17058427134906L45.96834011077881,135.58962238076097L46.43266677856445,121.37856273027354L46.896993446350095,117.25010699082199L47.361320114135744,147.76029035707052L47.825646781921385,105.78480803042861L48.289973449707034,194.31858795836135L48.754300117492676,208.69595583637826L49.21862678527832,119.69471693018737L49.682953453063966,159.51638176601168L50.14728012084961,110.82740276725343L50.61160678863526,112.348084008585L51.07593345642089,98.8720373618009L51.54026012420654,110.1090460529835L52.00458679199219,108.70687964276756L52.46891345977783,103.18584901668346L52.93324012756348,170.50271142594755L53.39756679534913,114.32380698346356L53.86189346313476,128.86186004596172L54.32622013092041,125.55255474653153L54.79054679870605,122.63276803563325L55.2548734664917,112.98858738287284L55.719200134277344,118.3218473891866L56.183526802062985,110.6066668415318L56.647853469848634,102.36597501424966L57.112180137634276,94.51178189022599L57.576506805419925,100.10264894527955L58.040833473205566,123.99117867586656L58.50516014099121,106.19618845222598L58.96948680877686,120.67073594817654L59.433813476562506,99.9930227573663L59.89814014434814,112.12374138353445L60.36246681213379,87.50108226588472L60.82679347991943,54.51329587248624L61.29112014770508,143.1255693573138L61.75544681549073,130.40022041122057L62.21977348327636,120.35323034090511L62.68410015106201,54.919300818238256L63.14842681884765,102.80407970750396L63.6127534866333,112.11349297393838L64.07708015441895,118.88560128833316L64.54140682220459,79.3348945242438L65.00573348999023,118.44707554596172L65.47006015777588,52.684105398861206L65.93438682556152,48.706601324270906L66.39871349334717,58.81694138286784L66.86304016113282,132.35631829909673L67.32736682891846,120.75844257834859L67.7916934967041,55.96527078808725L68.25602016448974,85.60625443304126L68.7203468322754,73.2284451080767L69.18467350006104,81.80527859636922L69.64900016784668,103.83093515870814L70.11332683563232,124.64514080492512L70.57765350341798,79.72427482098357L71.04198017120362,92.97528722941288L71.50630683898926,71.58427670485318L71.97063350677492,50.744528441153165L72.43496017456054,78.03202038603605L72.89928684234619,47.34746959112144L73.36361351013183,98.54329029873853L73.82794017791748,61.55182208969012L74.29226684570312,70.52438371493126L74.75659351348877,62.637331164609634L75.22092018127442,84.17463927958842L75.68524684906006,77.90221007889815L76.14957351684569,53.93409527405696L76.61390018463135,99.2842980046815L77.07822685241699,107.80997711211191L77.54255352020263,56.25687137929535L78.00688018798829,73.44672141549528L78.47120685577393,64.89516939545328L78.93553352355957,121.4437920052303L79.39986019134521,52.736883473532814L79.86418685913087,99.4048733217626L80.32851352691651,48.303762272760395L80.79284019470214,49.87930090463826L81.2571668624878,59.81681326550482L81.72149353027343,65.96794574751078L82.18582019805908,52.44841667311445L82.65014686584473,102.82264661534687L83.11447353363037,61.21389621761148L83.57880020141602,94.91341999482286L84.04312686920167,65.12405465892601L84.50745353698731,69.33153551434842L84.97178020477294,53.96303283156219L85.43610687255858,75.58246774984981L85.90043354034424,91.57286121339963L86.36476020812988,59.38790868067224L86.82908687591552,75.46218599413999L87.29341354370118,56.782239428137956L87.75774021148682,64.0200885687484L88.22206687927246,60.6436969331527L88.68639354705812,50.289217532510776L89.15072021484376,58.34195105830469L89.61504688262939,144.92184638440958L90.07937355041503,64.96656006364915L90.54370021820068,98.85210605725877L91.00802688598633,62.27175681208821L91.47235355377197,68.45482235059703L91.93668022155762,64.19371885277243L92.40100688934326,68.26304620784724L92.8653335571289,72.68192582352555L93.32966022491456,37.88768375670537L93.79398689270019,58.590007021462796L94.25831356048583,65.27268376252822L94.72264022827149,59.408864826173996L95.18696689605713,112.24565671103892L95.65129356384277,55.032942098429075L96.11562023162841,88.91964242720994L96.57994689941407,55.50612722120556L97.04427356719971,65.19603306723846L97.50860023498535,96.58803601394597L97.97292690277101,62.990817332800276L98.43725357055663,90.70841959407844L98.90158023834228,34.138000592687604L99.36590690612793,55.33439351033087L99.83023357391357,12.227266361739026L100.29456024169922,69.5262478881849L100.75888690948487,55.99469730585756L101.22321357727051,55.00029041850638L101.68754024505616,54.62550484482992L102.15186691284178,65.02937664073234L102.61619358062744,59.58511277626353L103.08052024841308,24.945024076242277L103.54484691619872,81.80401297952152L104.00917358398438,67.978402187683L104.47350025177002,68.61098588737455L104.93782691955566,85.61561876296615L105.40215358734132,53.97754359175171L105.86648025512696,20.371704632195588L106.3308069229126,54.612668403123806L106.79513359069826,60.22853509516402L107.25946025848388,57.18215212654695L107.72378692626953,21.55839637853194L108.18811359405517,62.90139193321163L108.65244026184082,51.48771347110478L109.11676692962646,104.75536146024402L109.5810935974121,63.09827252478915L110.04542026519776,58.59674874632961L110.5097469329834,78.0139313257249L110.97407360076903,72.76048543944607L111.43840026855469,34.57915634860598L111.90272693634033,27.130039331042894L112.36705360412597,68.5351106139193L112.83138027191163,60.97492059230514L113.29570693969727,29.61087060721559L113.76003360748291,58.409138643818025L114.22436027526855,109.53722307471523L114.68868694305421,47.55383551794199L115.15301361083985,78.46044959283313L115.61734027862548,53.548557513541624L116.08166694641113,51.97903951361441L116.54599361419677,34.71697399745838L117.01032028198242,74.00345700619073L117.47464694976807,70.70234302594854L117.93897361755371,70.453580786852L118.40330028533936,63.33279070929528L118.86762695312501,76.12894505296406L119.33195362091065,83.1797298497426L119.79628028869628,59.31988146642094L120.26060695648192,72.45233181461812L120.72493362426758,53.693670054429404L121.18926029205322,71.48880103935842L121.65358695983886,47.54812604252365L122.11791362762452,89.7934866536485L122.58224029541016,62.31979839287905L123.0465669631958,83.55575140631129L123.51089363098146,72.06997476532202L123.9752202987671,81.7273462325059L124.43954696655273,62.8261192168507L124.90387363433837,46.49354740861395L125.36820030212402,107.8967021175094L125.83252696990967,35.33056480119731L126.2968536376953,68.00916717244152L126.76118030548096,59.12120308154559L127.2255069732666,62.52840662232927L127.68983364105225,48.69852607140848L128.1541603088379,62.57232908331139L128.61848697662353,62.1682898566048L129.08281364440919,58.27150620718723L129.54714031219484,106.76717180175626L130.01146697998047,51.12944388860387L130.47579364776612,63.37068759933416L130.94012031555175,68.39773994389506L131.4044469833374,69.2477973647115L131.86877365112304,63.76689605331083L132.3331003189087,62.455761450019025L132.79742698669435,63.4397742274931L133.26175365447997,54.70134801483344L133.72608032226563,78.19595666238071L134.1904069900513,66.51993249684404L134.6547336578369,52.24188775953888L135.11906032562254,51.8902561830607L135.5833869934082,40.39738838347981L136.04771366119385,63.06990789042277L136.51204032897948,59.68943417746266L136.97636699676514,60.26784453707974L137.4406936645508,39.913895583196364L137.90502033233642,28.98139600335091L138.36934700012208,88.9127488283214L138.83367366790773,118.61492226967877L139.29800033569336,51.25921097955671L139.76232700347902,44.38290350402906L140.22665367126464,67.05596136116284L140.6909803390503,53.97390849321545L141.15530700683595,58.87361879217853L141.61963367462158,63.92426470427699L142.08396034240724,72.83395048452404L142.5482870101929,58.34559603482609L143.01261367797852,80.27549849596375L143.47694034576418,60.67227147470359L143.94126701354983,49.026974016732936L144.40559368133543,75.46268730188649L144.8699203491211,68.71470720097565L145.33424701690672,60.76255378950424L145.79857368469237,39.95442495627847L146.26290035247803,55.04436598825835L146.72722702026365,47.03734530825548L147.1915536880493,76.31378931963285L147.65588035583497,71.72896202288311L148.1202070236206,54.842894603081035L148.58453369140625,50.96555329794053L149.0488603591919,57.71051567438717L149.51318702697753,47.546076360604445L149.9775136947632,55.4212061828466L150.44184036254885,55.13443839587451L150.90616703033447,57.54759065677253L151.37049369812013,46.3973555891956L151.83482036590578,52.14380924495636L152.29914703369138,75.52528409380002L152.76347370147704,62.688896716603736L153.2278003692627,75.1321007727764L153.69212703704832,65.19236092625789L154.15645370483398,64.13859475662701L154.62078037261963,68.75709610476278L155.08510704040526,62.706548676071876L155.54943370819092,58.79521475452417L156.01376037597657,58.479650171335265L156.4780870437622,58.063991964592645L156.94241371154786,57.83714403555771L157.40674037933348,53.539114159735504L157.87106704711914,67.80658204443824L158.3353937149048,68.07493726708543L158.79972038269042,62.94785797537058L159.26404705047608,55.25851082838675L159.72837371826174,62.00240391294059L160.19270038604736,61.087423434707105L160.65702705383302,78.59315414962082L161.12135372161868,58.284476001692894L161.58568038940427,40.54077721595843L162.05000705718993,55.68681532562128L162.5143337249756,44.53540971680374L162.9786603927612,74.46751980967855L163.44298706054687,75.17621585446899L163.90731372833253,111.61424972632872L164.37164039611815,60.22830296251293L164.8359670639038,47.20036169723281L165.30029373168946,52.31899037264938L165.7646203994751,49.16991833987967L166.22894706726075,77.54009672542465L166.6932737350464,69.86491213965368L167.15760040283203,59.550646016569004L167.6219270706177,66.5210264836997L168.08625373840334,79.8369949790589L168.55058040618897,39.07941821446224L169.01490707397463,45.790881873759304L169.47923374176023,54.783350108579725L169.94356040954588,71.24239716921713L170.40788707733154,64.62797977505413L170.87221374511716,44.534649111946976L171.33654041290282,61.2247817572499L171.80086708068848,55.93819523078331L172.2651937484741,61.56722927703227L172.72952041625976,51.71645303429649L173.19384708404542,60.92091517797827L173.65817375183104,211.9869448818388L174.1225004196167,60.768752225187654L174.58682708740236,61.65256025177507L175.05115375518798,58.50111503307238L175.51548042297364,40.368218693323485L175.9798070907593,54.36761534745217L176.44413375854492,53.59029200081238L176.90846042633058,57.73745293989897L177.37278709411623,30.255947488629175L177.83711376190186,43.84168375851243L178.30144042968752,48.24623782622285L178.76576709747317,59.8600269810522L179.23009376525877,44.75624689187319L179.69442043304443,58.04371740006647L180.15874710083006,65.09617157633582L180.6230737686157,47.025007704799606L181.08740043640137,53.77579562299012L181.551727104187,73.043704560252L182.01605377197265,53.21351601312763L182.4803804397583,62.75047360655026L182.94470710754393,61.813242966760015L183.4090337753296,65.88719321888632L183.87336044311525,41.309472142567216L184.33768711090087,96.55804749284069L184.80201377868653,70.72476605224549L185.26634044647219,55.42040606604921L185.7306671142578,66.39333376962895L186.19499378204347,50.05478824987104L186.65932044982912,44.994207554205104L187.12364711761472,66.24019289630819L187.58797378540038,66.75896245106873L188.05230045318604,57.83819110198391L188.51662712097166,56.26048178286871L188.98095378875732,56.403863206858446L189.44528045654297,80.3246155423881L189.9096071243286,55.008424939279735L190.37393379211426,52.9419652622835L190.8382604598999,44.73922218446228L191.30258712768554,72.93731619065963L191.7669137954712,56.773080066405015L192.23124046325682,56.28820187870387L192.69556713104248,50.321849456463184L193.15989379882814,68.42203978737105L193.62422046661376,58.65578699409184L194.08854713439942,72.3269135066288L194.55287380218508,64.63739843389737L195.0172004699707,44.43130563127798L195.48152713775636,56.07263954770603L195.94585380554201,60.62189375042411L196.4101804733276,48.58711721586215L196.87450714111327,72.60114366094562L197.33883380889893,64.34435812635324L197.80316047668455,57.5796644745638L198.2674871444702,62.794850454849396L198.73181381225587,61.02313256833985L199.1961404800415,53.53133030743507L199.66046714782715,72.34197990348318L200.1247938156128,50.97649810548988L200.58912048339843,60.260171812112276L201.0534471511841,47.920313706104906L201.51777381896974,58.37738586054422L201.98210048675537,62.89923606295203L202.44642715454103,55.261612515724735L202.91075382232668,61.738666648352364L203.3750804901123,10.776595340178204L203.83940715789797,51.727007661432296L204.30373382568357,44.62549694139764L204.76806049346922,42.83169928857524L205.23238716125488,63.49755303214836L205.6967138290405,79.20601521720656L206.16104049682616,73.65667552042257L206.62536716461182,57.743965001610974L207.08969383239744,40.918106370811756L207.5540205001831,48.009210633487896L208.01834716796876,56.83612877613929L208.48267383575438,47.62028966305772L208.94700050354004,67.19761660724716L209.4113271713257,56.9929220344703L209.87565383911132,57.760362456964685L210.33998050689698,62.555867421054174L210.80430717468263,63.382306579370194L211.26863384246826,49.45399931489018L211.73296051025392,59.33156712285674L212.19728717803957,62.07816558956658L212.6616138458252,47.31653174162278L213.12594051361086,45.14263415911168L213.5902671813965,59.659847142433634L214.0545938491821,64.78603741548471L214.51892051696777,47.78416543674331L214.9832471847534,13.926655171463182L215.44757385253905,56.7851657812395L215.9119005203247,53.43186393593855L216.37622718811033,50.14767094426318L216.840553855896,67.23222659772641L217.30488052368165,10.159962117012213L217.76920719146727,56.0165548175045L218.23353385925293,44.000264932156114L218.69786052703859,56.748760466958714L219.1621871948242,57.938042714901385L219.62651386260987,42.45717548150532L220.09084053039552,70.22320147812492L220.55516719818115,49.00512885256745L221.0194938659668,56.39635840763859L221.48382053375246,47.22720018289306L221.94814720153806,45.05059603245007L222.41247386932372,40.524404455567606L222.87680053710938,51.415460948704336L223.341127204895,43.59025940241719L223.80545387268066,55.87523542291541L224.26978054046631,55.07021667540333L224.73410720825194,51.09859494097155L225.1984338760376,69.99817850684695L225.66276054382325,52.04706425836943L226.12708721160888,68.78110207818047L226.59141387939454,54.8699207704592L227.05574054718016,63.07101916375248L227.52006721496582,21.02120191196508L227.98439388275148,56.3010333814174L228.4487205505371,57.55016140240856L228.91304721832276,51.354276708667655L229.37737388610842,69.26182410362854L229.84170055389404,44.803839024339595L230.3060272216797,58.52068085216388L230.77035388946535,29.01917929656051L231.23468055725095,60.33348374842036L231.6990072250366,17.818018276528136L232.16333389282227,41.93823553150091L232.6276605606079,34.553913157547896L233.09198722839355,44.89686001052388L233.5563138961792,15.437636231374682L234.02064056396483,59.47978875957138L234.4849672317505,54.14531129158752L234.94929389953614,54.85834377186008L235.41362056732177,56.21870037516848L235.87794723510743,50.40855347114223L236.34227390289308,44.76571000164964L236.8066005706787,70.6873112020422L237.27092723846437,63.27519958635796L237.73525390625002,47.44091039167475L238.19958057403565,51.88797930748298L238.6639072418213,60.02482387685332L239.1282339096069,46.36830937385369L239.59256057739256,49.481924378917256L240.05688724517822,61.121704982180034L240.52121391296384,51.63230741777204L240.9855405807495,48.90505992397661L241.44986724853516,52.45017495447168L241.91419391632078,53.99788236318139L242.37852058410644,14.752820215691202L242.8428472518921,52.94015759100051L243.30717391967772,45.53552114058067L243.77150058746338,53.079402608707525L244.23582725524903,60.32909792301251L244.70015392303466,51.53409555038992L245.16448059082032,52.67200486704898L245.62880725860597,51.51630529912967L246.0931339263916,58.294474992163856L246.55746059417726,58.73254387772198L247.0217872619629,49.55335208955745L247.48611392974854,48.712409579540775L247.9504405975342,43.577877348028125L248.41476726531985,42.931694132277414L248.87909393310545,15.99717963934981L249.3434206008911,48.03106073664597L249.80774726867674,19.346354956353167L250.2720739364624,55.13091195517495L250.73640060424805,51.99467142511878L251.20072727203367,38.25079849092373L251.66505393981933,65.13654290165547L252.129380607605,41.617057783248924L252.5937072753906,21.173885928472544L253.05803394317627,53.72990250397001L253.52236061096193,41.383803980842345L253.98668727874755,54.64936511796661L254.4510139465332,50.29924368744092L254.91534061431886,53.592065099147305" fill="none"></path></g></g></g></g></g></g><g transform="translate(51, 178)" clip-path="url(#clip_1)"><clipPath id="clip_1"><rect width="278" height="21"></rect></clipPath><g><g><line x1="0" y1="0" x2="0" y2="5" style="visibility: inherit;" fill="rgb(0, 0, 0)" stroke="rgb(204, 204, 204)" stroke-width="1px"></line><line x1="23.216333389282227" y1="0" x2="23.216333389282227" y2="5" style="visibility: inherit;" fill="rgb(0, 0, 0)" stroke="rgb(204, 204, 204)" stroke-width="1px"></line><line x1="46.43266677856445" y1="0" x2="46.43266677856445" y2="5" style="visibility: inherit;" fill="rgb(0, 0, 0)" stroke="rgb(204, 204, 204)" stroke-width="1px"></line><line x1="69.64900016784668" y1="0" x2="69.64900016784668" y2="5" style="visibility: inherit;" fill="rgb(0, 0, 0)" stroke="rgb(204, 204, 204)" stroke-width="1px"></line><line x1="92.8653335571289" y1="0" x2="92.8653335571289" y2="5" style="visibility: inherit;" fill="rgb(0, 0, 0)" stroke="rgb(204, 204, 204)" stroke-width="1px"></line><line x1="116.08166694641113" y1="0" x2="116.08166694641113" y2="5" style="visibility: inherit;" fill="rgb(0, 0, 0)" stroke="rgb(204, 204, 204)" stroke-width="1px"></line><line x1="139.29800033569336" y1="0" x2="139.29800033569336" y2="5" style="visibility: inherit;" fill="rgb(0, 0, 0)" stroke="rgb(204, 204, 204)" stroke-width="1px"></line><line x1="162.5143337249756" y1="0" x2="162.5143337249756" y2="5" style="visibility: inherit;" fill="rgb(0, 0, 0)" stroke="rgb(204, 204, 204)" stroke-width="1px"></line><line x1="185.7306671142578" y1="0" x2="185.7306671142578" y2="5" style="visibility: inherit;" fill="rgb(0, 0, 0)" stroke="rgb(204, 204, 204)" stroke-width="1px"></line><line x1="208.94700050354004" y1="0" x2="208.94700050354004" y2="5" style="visibility: inherit;" fill="rgb(0, 0, 0)" stroke="rgb(204, 204, 204)" stroke-width="1px"></line><line x1="232.16333389282227" y1="0" x2="232.16333389282227" y2="5" style="visibility: inherit;" fill="rgb(0, 0, 0)" stroke="rgb(204, 204, 204)" stroke-width="1px"></line><line x1="255.3796672821045" y1="0" x2="255.3796672821045" y2="5" style="visibility: inherit;" fill="rgb(0, 0, 0)" stroke="rgb(204, 204, 204)" stroke-width="1px"></line><line x1="278.5960006713867" y1="0" x2="278.5960006713867" y2="5" style="visibility: inherit;" fill="rgb(0, 0, 0)" stroke="rgb(204, 204, 204)" stroke-width="1px"></line></g><g transform="translate(0, 8)"><text style="text-anchor: middle; visibility: hidden; font-family: &quot;Helvetica Neue&quot;, sans-serif; font-size: 12px; font-weight: 200;" x="0" y="0" dx="0em" dy="0.95em" fill="rgb(50, 49, 63)" stroke="none" stroke-width="1px">-50</text><text style="text-anchor: middle; visibility: inherit; font-family: &quot;Helvetica Neue&quot;, sans-serif; font-size: 12px; font-weight: 200;" x="23.216333389282227" y="0" dx="0em" dy="0.95em" fill="rgb(50, 49, 63)" stroke="none" stroke-width="1px">0</text><text style="text-anchor: middle; visibility: hidden; font-family: &quot;Helvetica Neue&quot;, sans-serif; font-size: 12px; font-weight: 200;" x="46.43266677856445" y="0" dx="0em" dy="0.95em" fill="rgb(50, 49, 63)" stroke="none" stroke-width="1px">50</text><text style="text-anchor: middle; visibility: inherit; font-family: &quot;Helvetica Neue&quot;, sans-serif; font-size: 12px; font-weight: 200;" x="69.64900016784668" y="0" dx="0em" dy="0.95em" fill="rgb(50, 49, 63)" stroke="none" stroke-width="1px">100</text><text style="text-anchor: middle; visibility: hidden; font-family: &quot;Helvetica Neue&quot;, sans-serif; font-size: 12px; font-weight: 200;" x="92.8653335571289" y="0" dx="0em" dy="0.95em" fill="rgb(50, 49, 63)" stroke="none" stroke-width="1px">150</text><text style="text-anchor: middle; visibility: inherit; font-family: &quot;Helvetica Neue&quot;, sans-serif; font-size: 12px; font-weight: 200;" x="116.08166694641113" y="0" dx="0em" dy="0.95em" fill="rgb(50, 49, 63)" stroke="none" stroke-width="1px">200</text><text style="text-anchor: middle; visibility: hidden; font-family: &quot;Helvetica Neue&quot;, sans-serif; font-size: 12px; font-weight: 200;" x="139.29800033569336" y="0" dx="0em" dy="0.95em" fill="rgb(50, 49, 63)" stroke="none" stroke-width="1px">250</text><text style="text-anchor: middle; visibility: inherit; font-family: &quot;Helvetica Neue&quot;, sans-serif; font-size: 12px; font-weight: 200;" x="162.5143337249756" y="0" dx="0em" dy="0.95em" fill="rgb(50, 49, 63)" stroke="none" stroke-width="1px">300</text><text style="text-anchor: middle; visibility: hidden; font-family: &quot;Helvetica Neue&quot;, sans-serif; font-size: 12px; font-weight: 200;" x="185.7306671142578" y="0" dx="0em" dy="0.95em" fill="rgb(50, 49, 63)" stroke="none" stroke-width="1px">350</text><text style="text-anchor: middle; visibility: inherit; font-family: &quot;Helvetica Neue&quot;, sans-serif; font-size: 12px; font-weight: 200;" x="208.94700050354004" y="0" dx="0em" dy="0.95em" fill="rgb(50, 49, 63)" stroke="none" stroke-width="1px">400</text><text style="text-anchor: middle; visibility: hidden; font-family: &quot;Helvetica Neue&quot;, sans-serif; font-size: 12px; font-weight: 200;" x="232.16333389282227" y="0" dx="0em" dy="0.95em" fill="rgb(50, 49, 63)" stroke="none" stroke-width="1px">450</text><text style="text-anchor: middle; visibility: inherit; font-family: &quot;Helvetica Neue&quot;, sans-serif; font-size: 12px; font-weight: 200;" x="255.3796672821045" y="0" dx="0em" dy="0.95em" fill="rgb(50, 49, 63)" stroke="none" stroke-width="1px">500</text><text style="text-anchor: middle; visibility: hidden; font-family: &quot;Helvetica Neue&quot;, sans-serif; font-size: 12px; font-weight: 200;" x="278.5960006713867" y="0" dx="0em" dy="0.95em" fill="rgb(50, 49, 63)" stroke="none" stroke-width="1px">550</text></g><line x1="0" y1="0" x2="278.5960006713867" y2="0" fill="rgb(0, 0, 0)" stroke="rgb(204, 204, 204)" stroke-width="1px"></line></g></g></g></g></svg>